<?xml version="1.0" standalone="no"?>
<!DOCTYPE svg PUBLIC "-//W3C//DTD SVG 1.1//EN" "http://www.w3.org/Graphics/SVG/1.1/DTD/svg11.dtd" >
<svg xmlns="http://www.w3.org/2000/svg">
<metadata></metadata>
<defs>
<font id="elan_itc_stdblack" horiz-adv-x="1257" >
<font-face units-per-em="2048" ascent="1432" descent="-616" />
<missing-glyph horiz-adv-x="374" />
<glyph unicode="&#xfb01;" horiz-adv-x="1404" d="M47 705v266h127v121q0 307 299 307q82 0 161 -13.5t93 -13.5q17 0 35 6h41v-301h-41q-56 35 -146 35q-33 0 -62.5 -24.5t-29.5 -73.5v-43h744v-641q0 -148 19 -208t87 -81v-41q-180 4 -284 4q-97 0 -285 -4v41q66 20 84 80.5t18 208.5v375h-372v-375q0 -145 19 -207 t87 -82v-41q-90 2 -276 2q-197 0 -293 -2v41q66 20 84 81.5t18 207.5v375h-127zM872 1255q0 88 61.5 149.5t149.5 61.5t149.5 -61.5t61.5 -149.5t-61.5 -149.5t-149.5 -61.5t-149.5 61.5t-61.5 149.5z" />
<glyph unicode="&#xfb02;" horiz-adv-x="1404" d="M47 705v266h127v121q0 154 77.5 230.5t194.5 76.5q76 0 157 -13.5t95 -13.5q17 0 35 6h45v-301h-45q-53 35 -119 35q-31 0 -60.5 -25t-29.5 -73v-43h197v-266h-186v-375q0 -145 19 -207t87 -82v-41q-90 2 -276 2q-197 0 -293 -2v41q66 20 84 81.5t18 207.5v375h-127z M805 0v41q66 21 85 81t19 208v708q0 51 -0.5 70.5t-2.5 58t-8 55.5t-16 41t-27 38t-40 24v41h455v-1036q0 -148 19.5 -208t86.5 -81v-41q-176 4 -276 4q-107 0 -295 -4z" />
<glyph horiz-adv-x="2048" />
<glyph horiz-adv-x="2048" />
<glyph unicode="&#xd;" horiz-adv-x="2048" />
<glyph unicode=" "  horiz-adv-x="374" />
<glyph unicode="&#x09;" horiz-adv-x="374" />
<glyph unicode="&#xa0;" horiz-adv-x="374" />
<glyph unicode="!" horiz-adv-x="849" d="M139 1325v41q204 -4 287 -4q87 0 287 4v-41q-33 -14 -48.5 -26.5t-28 -52t-15.5 -111.5l-25 -633h-342l-25 633q-3 71 -15 110t-27.5 53t-47.5 27zM211 190q0 93 66 159.5t159 66.5t158 -66.5t65 -159.5t-65 -158t-158 -65q-92 0 -158.5 65.5t-66.5 157.5z" />
<glyph unicode="&#x22;" d="M186 1366h365l-53 -520h-260zM707 1366h364l-53 -520h-260z" />
<glyph unicode="#" horiz-adv-x="1552" d="M74 301l47 240h235l54 282h-234l47 240h234l59 303h277l-58 -303h236l57 303h275l-60 -303h236l-47 -240h-236l-53 -282h235l-49 -240h-233l-60 -301h-272l57 301h-235l-58 -301h-278l59 301h-235zM633 541h235l54 282h-234z" />
<glyph unicode="$" d="M182 430h37q58 -68 134.5 -100.5t185.5 -32.5q104 0 141 31t37 88q0 17 -25 48.5t-67 55.5q-207 117 -270 165q-108 80 -136 172q-14 46 -14 101q0 156 74.5 250t232.5 146v209h221v-213q49 -8 108 -24.5t74 -16.5q6 0 48 14h43v-381h-43q-43 70 -117 105.5t-164 35.5 q-66 0 -93.5 -25t-27.5 -77q0 -9 7.5 -22.5t15.5 -18.5q49 -36 115.5 -75.5t114.5 -65.5t100 -64t84.5 -77.5t53.5 -100t21 -135.5q0 -151 -80 -246t-245 -147v-213h-222v204q-54 7 -99.5 14.5t-79 16t-54.5 15t-44.5 14.5t-29.5 10z" />
<glyph unicode="%" horiz-adv-x="1923" d="M31 956q0 208 98.5 319t276.5 111q179 0 276.5 -111.5t97.5 -318.5q0 -206 -98 -318t-276 -112t-276.5 111t-98.5 319zM281 956q0 -258 125 -258q64 0 94 63.5t30 194.5q0 258 -124 258q-125 0 -125 -258zM551 0l588 1366h243l-583 -1366h-248zM1145 410q0 207 98 319.5 t275 112.5q179 0 277.5 -113.5t98.5 -318.5q0 -206 -98.5 -318t-277.5 -112q-178 0 -275.5 112t-97.5 318zM1395 410q0 -258 123 -258q127 0 127 258q0 260 -127 260q-123 0 -123 -260z" />
<glyph unicode="&#x26;" horiz-adv-x="1738" d="M88 395q0 157 83.5 247.5t252.5 121.5q-113 31 -174.5 106t-61.5 166q0 159 117 262t316 103q65 0 139.5 -21.5t89.5 -21.5q3 0 14 2t13 2h45v-346h-45q-19 52 -55 76t-97 24q-168 0 -168 -153q0 -44 39 -79.5t111 -35.5q37 0 73 8l37 -22l-108 -218h-35 q-95 0 -152 -44.5t-57 -127.5q0 -97 76.5 -148.5t197.5 -51.5q175 0 274 86.5t99 218.5q0 43 -41 90q-31 2 -78 2q-37 0 -63.5 -5t-42.5 -16t-21 -15.5t-14 -16.5l-47 18q51 119 73 154q55 86 154 105q35 7 78 7h336q129 0 200 32t123 106l56 -11q-18 -100 -41 -169 t-49.5 -112t-64.5 -66.5t-78 -31.5t-99 -8q-7 0 -31 4q13 -46 13 -108q0 -96 -52 -191t-147.5 -174t-247.5 -128.5t-334 -49.5q-139 0 -256 37.5t-192 99t-116.5 138t-41.5 155.5z" />
<glyph unicode="'" horiz-adv-x="628" d="M131 1366h367l-54 -520h-260z" />
<glyph unicode="(" horiz-adv-x="665" d="M111 471q0 464 198 895h293q-108 -377 -108 -895q0 -520 108 -895h-293q-198 440 -198 895z" />
<glyph unicode=")" horiz-adv-x="665" d="M63 -424q109 357 109 895q0 542 -109 895h295q197 -435 197 -895q0 -454 -197 -895h-295z" />
<glyph unicode="*" d="M326 1014l147 57l-147 62l104 176l115 -103l-15 160h203l-14 -160l112 103l103 -176l-143 -62l143 -57l-103 -176l-112 102l14 -162h-203l15 162l-115 -102z" />
<glyph unicode="+" d="M98 553v266h398v400h266v-400h397v-266h-397v-395h-266v395h-398z" />
<glyph unicode="," horiz-adv-x="665" d="M4 -258l148 442h507l-294 -442h-361z" />
<glyph unicode="-" horiz-adv-x="702" d="M82 346v277h539v-277h-539z" />
<glyph unicode="." horiz-adv-x="667" d="M109 190q0 93 65.5 159.5t157.5 66.5q94 0 159.5 -66t65.5 -160q0 -93 -66 -158t-159 -65t-158 65t-65 158z" />
<glyph unicode="/" horiz-adv-x="1220" d="M63 -428l795 1794h297l-784 -1794h-308z" />
<glyph unicode="0" d="M72 684q0 346 146 530.5t411 184.5q266 0 411.5 -185t145.5 -530q0 -346 -146 -531.5t-411 -185.5t-411 185.5t-146 531.5zM440 684q0 -432 189 -432q96 0 142 105.5t46 326.5q0 219 -46.5 324.5t-141.5 105.5q-189 0 -189 -430z" />
<glyph unicode="1" d="M295 1126v50l473 229h43v-1075q0 -42 0.5 -65t3.5 -59t10 -57.5t18 -45.5t30 -39t45 -23v-41q-200 4 -285 4q-95 0 -291 -4v41q29 17 48 39t29 42t14.5 58.5t5.5 65t1 84.5v635q0 38 -4.5 63t-18.5 49t-44.5 36t-77.5 13z" />
<glyph unicode="2" d="M94 0v47q30 39 60.5 82t47 67t42 63t30.5 46q36 52 87.5 125.5t80.5 115.5t66 97.5t57 90t40 73.5t28 69t8 56q0 92 -47 137t-156 45q-73 0 -127.5 -34.5t-103.5 -102.5h-47v391h39q27 -18 37 -18q7 0 44.5 12t102.5 24.5t141 12.5q236 0 365 -102.5t129 -292.5 q0 -102 -52.5 -206t-168.5 -276q-106 -155 -183 -246h74q180 0 252.5 25t93.5 105l47 -5l-45 -401h-942z" />
<glyph unicode="3" d="M129 391l41 4q68 -71 148.5 -107t150.5 -36q229 0 229 149q0 85 -53.5 124.5t-163.5 39.5h-57v289q40 -4 53 -4q86 0 135.5 36.5t49.5 90.5q0 65 -47 102t-132 37q-191 0 -252 -151h-38v399h38q20 -16 39 -16q5 0 43.5 13t109 26.5t152.5 13.5q221 0 338 -100t117 -273 q0 -135 -69.5 -217.5t-192.5 -101.5q151 -21 225 -107t74 -219q0 -191 -141.5 -303.5t-395.5 -112.5q-103 0 -202.5 17.5t-165.5 48.5z" />
<glyph unicode="4" d="M70 307v232l878 866h41v-850h152v-248h-152v-20q0 -120 22 -174t85 -72v-41q-160 4 -252 4t-314 -4v41q54 20 75.5 68.5t21.5 177.5v20h-557zM395 535h277v313z" />
<glyph unicode="5" d="M145 408l39 4q60 -81 145 -120.5t163 -39.5q56 0 97.5 8.5t76.5 30t53 61.5t18 99q0 60 -43.5 104.5t-120.5 44.5q-100 0 -157 -63l-250 51l86 778h801v-391h-52q-11 67 -60.5 91t-178.5 24h-197l-22 -232q79 27 129 27q107 0 191.5 -34.5t136.5 -94.5t79 -137.5 t27 -167.5q0 -103 -34.5 -190t-102.5 -153t-176.5 -103.5t-247.5 -37.5q-76 0 -181 15.5t-188 44.5z" />
<glyph unicode="6" d="M90 457q0 121 28.5 214.5t94.5 205.5q83 142 152 231q2 3 27.5 36t45 59t38 56t18.5 41q0 25 -50 25v41q50 0 150.5 -2t150.5 -2q49 0 147.5 2t147.5 2v-39q-237 -202 -426 -430q77 25 136 25q133 0 229.5 -67.5t142 -174.5t45.5 -238q0 -120 -42.5 -212.5t-118 -149 t-173.5 -85t-215 -28.5q-234 0 -381 130t-147 360zM459 457q0 -87 43 -146t127 -59t127 59t43 146t-43 146t-127 59t-127 -59t-43 -146z" />
<glyph unicode="7" d="M121 977v389h983v-53l-397 -1129q-21 -60 -21 -75q0 -27 7.5 -40.5t37.5 -27.5v-41q-160 4 -239 4q-82 0 -234 -4v45l404 1045h-232q-50 0 -76 -0.5t-61.5 -4t-53 -10.5t-36.5 -19.5t-28.5 -32t-12.5 -46.5h-41z" />
<glyph unicode="8" d="M86 375q0 134 66 215.5t196 124.5q-227 63 -227 311q0 172 138 273.5t368 101.5q231 0 371.5 -102t140.5 -273q0 -120 -58 -199.5t-174 -111.5q131 -43 197.5 -124.5t66.5 -215.5q0 -185 -145 -297.5t-399 -112.5t-397.5 112.5t-143.5 297.5zM455 408q0 -79 47.5 -131 t124.5 -52t126.5 52t49.5 131q0 77 -49.5 129.5t-126.5 52.5t-124.5 -51.5t-47.5 -130.5zM489 989q0 -68 38 -108.5t100 -40.5q61 0 98 40t37 109t-37 110.5t-98 41.5t-99.5 -42t-38.5 -110z" />
<glyph unicode="9" d="M102 915q0 155 71 266t190 164.5t272 53.5q117 0 208 -26.5t169 -94.5q84 -72 112.5 -153.5t28.5 -206.5q0 -32 -4.5 -67t-15.5 -75.5t-20 -72t-28 -79t-29.5 -74t-34.5 -78t-32.5 -69t-34.5 -70.5t-30 -61q-76 -148 -76 -182q0 -38 47 -49v-41q-104 4 -315 4 q-63 0 -181 -4v45q42 54 88 124t73.5 115.5t80.5 136.5t72 122q-95 -43 -162 -43q-108 0 -186 26.5t-148 96.5q-115 115 -115 292zM471 936q0 -73 43.5 -124.5t114.5 -51.5t113 51.5t42 124.5t-41.5 125.5t-113.5 52.5t-115 -52t-43 -126z" />
<glyph unicode=":" horiz-adv-x="667" d="M109 190q0 93 65.5 159.5t157.5 66.5q94 0 159.5 -66t65.5 -160q0 -93 -66 -158t-159 -65t-158 65t-65 158zM109 778q0 93 65 159.5t158 66.5t159 -66.5t66 -159.5q0 -92 -65.5 -157.5t-159.5 -65.5q-93 0 -158 65t-65 158z" />
<glyph unicode=";" horiz-adv-x="665" d="M4 -258l148 442h507l-294 -442h-361zM139 778q0 93 66.5 159.5t159.5 66.5q92 0 157.5 -66t65.5 -160q0 -93 -65 -158t-158 -65t-159.5 65t-66.5 158z" />
<glyph unicode="&#x3c;" d="M98 555v264l1061 400v-267l-797 -266l797 -264v-264z" />
<glyph unicode="=" d="M98 307v266h1061v-266h-1061zM98 799v266h1061v-266h-1061z" />
<glyph unicode="&#x3e;" d="M98 158v266l797 266l-797 264v265l1061 -398v-264z" />
<glyph unicode="?" horiz-adv-x="962" d="M74 969v407h47q15 -10 31 -10q2 0 54.5 11.5t118 18t183.5 -0.5q178 -15 280.5 -111t102.5 -244q0 -76 -25 -138t-64.5 -107.5t-82 -86.5t-84.5 -95.5t-64 -114.5h-301q4 58 28 114t54 93q15 19 53.5 65.5t49 61t29.5 44.5t24.5 52.5t5.5 48.5q0 54 -46 91.5t-120 37.5 t-136.5 -38t-90.5 -99h-47zM215 190q0 94 65.5 160t157.5 66q93 0 159.5 -66.5t66.5 -159.5t-66.5 -158t-159.5 -65t-158 65t-65 158z" />
<glyph unicode="@" horiz-adv-x="1662" d="M72 637q0 166 61.5 312t167.5 249.5t252.5 163t310.5 59.5q174 0 313.5 -49t229 -135t137 -200.5t47.5 -248.5q0 -105 -41.5 -192t-105 -138.5t-131.5 -79.5t-129 -28q-140 0 -209.5 43t-69.5 139q0 46 9.5 107.5t9.5 85.5q0 33 -30 64.5t-87 31.5q-65 0 -105 -53.5 t-40 -120.5q0 -45 27.5 -78.5t78.5 -33.5q45 0 72 24l30 -18l-82 -179q-55 -10 -120 -10q-119 0 -187.5 74t-68.5 192q0 168 106 277t273 109q124 0 198 -84l21 65h213l-62 -319q-12 -69 -12 -76q0 -41 31 -41q33 0 67 14.5t65.5 43t51.5 79t20 113.5q0 85 -31.5 159 t-93 131t-160.5 90t-225 33q-172 0 -307 -72t-211.5 -208.5t-76.5 -315.5q0 -197 136 -319.5t388 -122.5q122 0 379 55l-33 -217q-235 -47 -346 -47q-337 0 -534 182t-197 490z" />
<glyph unicode="A" horiz-adv-x="1404" d="M-4 0v41q14 15 28 35.5t20.5 32.5t21 41.5t18.5 37.5l610 1258h45l572 -1239q47 -103 100 -166v-41q-140 4 -215 4q-91 0 -287 -4v41q45 10 45 45q0 33 -10 66l-18 57h-469l-31 -88q-6 -12 -6 -25q0 -24 6.5 -33t38.5 -22v-41q-218 4 -297 4q-111 0 -172 -4zM547 485h287 l-134 346z" />
<glyph unicode="B" d="M45 0v41q25 4 43 16t29.5 36t18 48t10 66t4 74t0.5 88v628q0 48 -0.5 76t-2.5 66t-6 60.5t-11.5 48t-19 39.5t-28 24.5t-37.5 13.5v39h569q127 0 209.5 -8.5t139.5 -34.5q87 -38 138.5 -116t51.5 -171q0 -108 -73.5 -188t-215.5 -113q350 -40 350 -366 q0 -142 -84.5 -234.5t-240.5 -120.5q-70 -12 -303 -12h-541zM510 381q0 -70 27 -100.5t100 -30.5q201 0 201 166q0 55 -29 102q-29 48 -86 66t-156 18q-7 0 -28.5 -1t-28.5 -1v-219zM510 846q17 -1 36 -1q63 0 144 15q33 6 59.5 44.5t26.5 86.5q0 135 -143 135 q-42 0 -123 -18v-262z" />
<glyph unicode="C" horiz-adv-x="1294" d="M61 670q0 357 234 563q103 93 226.5 131.5t295.5 38.5q57 0 170 -26.5t148 -26.5q9 0 30 14h49v-391h-32q-76 67 -159 97t-194 30q-162 0 -270 -117t-108 -307q0 -113 45 -203.5t141.5 -147.5t230.5 -57q80 0 169 35.5t159 108.5l41 -4l-35 -373q-176 -70 -395 -70 q-135 0 -254.5 37.5t-208.5 104.5t-153.5 155.5t-97 192.5t-32.5 215z" />
<glyph unicode="D" horiz-adv-x="1441" d="M18 0v41q20 3 35 11t26 23t19 29.5t13 40.5t8 45.5t4 54.5t1.5 58t0.5 66v628q0 49 -0.5 74.5t-2.5 65t-6 60.5t-11.5 47.5t-19 40.5t-28.5 25.5t-39 14.5v41h506q229 0 338 -31q232 -65 370 -239.5t138 -407.5q0 -214 -109 -377t-303 -243q-167 -68 -434 -68h-506z M506 498q0 -37 0.5 -54t2.5 -42t6.5 -35t12.5 -23.5t21.5 -18.5t31.5 -8.5t44 -3.5q170 0 263 103t93 272q0 69 -27.5 142t-74.5 128q-55 64 -123.5 87.5t-169.5 23.5q-30 0 -80 -4v-567z" />
<glyph unicode="E" horiz-adv-x="1110" d="M37 0v43q19 3 34 11.5t25.5 23.5t18 30t12.5 41t8 46t4 54.5t1.5 58t0.5 63.5v626v22q0 54 -0.5 80t-3 67.5t-9 62.5t-18 44.5t-30 35.5t-43.5 16v41h997v-371h-41q-20 40 -47.5 58t-81.5 18h-342v-211h187q91 0 134 19t64 73h43q-4 -110 -4 -174q0 -43 4 -293h-43 q-25 55 -62.5 67.5t-111.5 12.5h-16h-195v-186q0 -31 6 -48.5t22.5 -25t30.5 -9t46 -1.5h159q116 0 170.5 26.5t73.5 86.5l41 -5l-39 -403h-995z" />
<glyph unicode="F" horiz-adv-x="1073" d="M39 0v43q19 2 34 9.5t26 22.5t18.5 29t12.5 41.5t7.5 46t4 55.5t1.5 58.5v65.5v626v65.5t-1.5 58t-4 55t-7.5 45t-12.5 40t-18.5 29t-26 23.5t-34 12v41h1012v-365h-41q-26 47 -63 58.5t-128 11.5h-295v-203h156q121 0 167.5 16.5t76.5 78.5h39q0 -38 -1 -118.5 t-1 -119.5t1 -120t1 -120h-39q-13 22 -25.5 37t-31 25t-31 15.5t-40.5 7.5t-45 2.5t-58 0.5h-25h-144v-202q0 -66 1.5 -108t8 -86.5t17.5 -69.5t31 -42.5t49 -21.5v-43q-200 4 -295 4q-182 0 -297 -4z" />
<glyph unicode="G" horiz-adv-x="1441" d="M72 686q0 152 70.5 305.5t193.5 253.5q111 93 231.5 124.5t286.5 31.5q63 0 134 -17t122 -34t66 -17q11 0 20.5 6.5t13 11t11.5 15.5h45v-399h-45q-68 70 -148.5 100.5t-198.5 30.5q-234 0 -335 -137q-34 -47 -56 -122t-22 -153q0 -204 97 -311t243 -107q108 0 200 45 v115q0 104 -20.5 154.5t-83.5 60.5v41h485v-598q-125 -68 -263.5 -94.5t-323.5 -26.5q-173 0 -312 57t-228 155.5t-136 228.5t-47 280z" />
<glyph unicode="H" horiz-adv-x="1515" d="M39 0v41q25 4 43.5 16.5t29.5 38t18 48t9.5 67.5t3 73.5t0.5 86.5v626v65.5t-1.5 58t-4 55t-7.5 45.5t-12.5 41t-18.5 29.5t-26 23t-34 10.5v41q200 -4 305 -4q83 0 287 4v-41q-36 -6 -58.5 -29.5t-32.5 -71.5t-13 -96t-3 -131v-123h469v123v66.5t-1.5 58t-4 55t-7.5 45 t-12.5 40.5t-18.5 29t-26 23t-34 11v41q200 -4 301 -4q97 0 289 4v-41q-30 -5 -50 -24.5t-31 -44t-16.5 -71t-6.5 -84t-1 -104.5v-626q0 -48 0.5 -76t2.5 -66t6 -60t11.5 -47.5t19 -40t28 -25.5t37.5 -15v-41q-196 4 -289 4q-197 0 -301 -4v41q19 3 34 10.5t26 23t18.5 29.5 t12.5 40.5t7.5 45.5t4 56t1.5 58.5v66.5v168h-469v-168q0 -67 1.5 -108t7.5 -86t17 -70t31.5 -43t49.5 -23v-41q-200 4 -293 4q-195 0 -299 -4z" />
<glyph unicode="I" horiz-adv-x="665" d="M37 0v41q19 3 34 10.5t26 22.5t18.5 29t12.5 40.5t7.5 45t4 55.5t1.5 58.5v66.5v628v67t-1.5 58.5t-4 55t-7.5 45t-12.5 40t-18.5 28.5t-26 23t-34 11v41q218 -4 301 -4q89 0 289 4v-41q-25 -4 -43 -16.5t-29.5 -36t-18 -46.5t-10 -65t-4 -74.5t-0.5 -89.5v-628 q0 -167 18.5 -242t86.5 -86v-41q-196 4 -299 4q-99 0 -291 -4z" />
<glyph unicode="J" horiz-adv-x="962" d="M-16 403l43 3q108 -138 272 -138q36 0 77.5 22t59.5 54q11 18 16 54.5t6 69t1 101.5v428q0 51 -0.5 80t-2 66.5t-5.5 58t-10.5 45t-16.5 36.5t-24 23t-32.5 15t-43.5 4v41q242 -4 325 -4q65 0 295 4v-41q-21 -4 -37 -14.5t-27 -24t-18.5 -37.5t-12 -46t-6.5 -59.5 t-2.5 -67.5t-0.5 -79v-354q0 -38 2 -120.5t2 -125.5v-18q0 -69 -2 -103.5t-17 -81.5t-45 -85q-114 -144 -399 -144q-184 0 -358 55z" />
<glyph unicode="K" horiz-adv-x="1404" d="M57 0v41q20 3 35 11t26 23.5t19 29t12.5 41t7 45t4 55.5t1.5 58v67v626v66t-1.5 58t-4 55.5t-7 45t-12.5 41t-19 29t-26 23t-35 10.5v41q222 -4 293 -4q79 0 305 4v-41q-24 -3 -41.5 -14.5t-29.5 -24.5t-20 -39.5t-12 -46t-6 -58.5t-2.5 -62t-0.5 -70v-13v-184l262 367 q55 75 55 100q0 39 -55 45v41q200 -4 303 -4q91 0 313 4v-41q-80 -25 -145 -104l-383 -461l473 -668q30 -46 80 -55v-41q-138 -12 -287 -12q-176 0 -237 94l-379 586v-293q0 -49 0.5 -77.5t2.5 -67t6.5 -60t12.5 -47t20 -39t29.5 -24.5t40.5 -15v-41q-212 4 -317 4 q-85 0 -281 -4z" />
<glyph unicode="L" horiz-adv-x="1036" d="M39 0v41q25 5 43 17.5t29.5 36.5t18 46.5t9.5 65t3.5 73.5t0.5 89v628q0 57 -0.5 88t-3.5 74t-9.5 66t-18 47.5t-29.5 36.5t-43 16v41q230 -4 299 -4q59 0 297 4v-41q-23 -3 -41 -14.5t-29.5 -25t-19.5 -40.5t-12 -47t-6 -59t-2.5 -62.5t-0.5 -70.5v-3v-3v-3v-567 q0 -39 3.5 -58t20 -36.5t49.5 -23t91 -5.5h45q104 0 166 24t92 81l43 -6l-35 -406h-960z" />
<glyph unicode="M" horiz-adv-x="1886" d="M6 0v41q14 6 21.5 11.5t24.5 37t34 88.5l391 1268h55l396 -848l411 848h50l407 -1305q21 -64 84 -100v-41q-196 4 -301 4q-75 0 -227 -4v41q47 26 47 96q0 18 -19 101l-100 407l-342 -688h-64l-313 688l-135 -465q-23 -76 -23 -100q0 -12 11 -23.5t28 -15.5v-41 q-176 4 -243 4q-57 0 -193 -4z" />
<glyph unicode="N" horiz-adv-x="1515" d="M31 0v41q19 3 34 10.5t26 22.5t18.5 28.5t12.5 39.5t7.5 43.5t4 53t1.5 56.5v64v5.5v4.5v1030h51l850 -750v348q0 173 -11 223q-17 77 -78 103q-2 1 -5 2v41q192 -4 264 -4q89 0 281 4v-41q-18 -3 -33 -10.5t-25 -22.5t-17.5 -29.5t-12.5 -40.5t-7.5 -45.5t-3.5 -55 t-1.5 -58.5t-0.5 -66v-1028h-55l-846 740v-340q0 -15 -1 -47.5t-1 -45.5q0 -101 19.5 -158.5t79.5 -76.5v-41q-180 4 -269 4q-98 0 -282 -4z" />
<glyph unicode="O" horiz-adv-x="1662" d="M74 684q0 213 108 386t295 261q146 70 357 70q208 0 354 -70q187 -88 296 -261t109 -386t-109.5 -386.5t-295.5 -262.5q-149 -70 -354 -70q-208 0 -357 70q-186 88 -294.5 261.5t-108.5 387.5zM463 684q0 -180 108 -298t263 -118q156 0 263 118t107 298q0 179 -107 296.5 t-263 117.5q-155 0 -263 -117t-108 -297z" />
<glyph unicode="P" d="M39 0v41q19 4 34.5 11t26 22t18.5 27.5t12.5 38t7 41.5t4 51t1.5 53.5v61.5v22v628v9v63t-1.5 56t-4 53.5t-7.5 44.5t-12.5 40t-18.5 29t-26 22.5t-34 10.5v41h481q128 0 254 -6q199 -10 318.5 -132t119.5 -313q0 -215 -119.5 -337.5t-338.5 -122.5q-26 0 -103 14 l-80 285l41 14q30 -10 47 -10q170 0 170 172q0 72 -56.5 118t-151.5 46q-39 0 -97 -7v-718q0 -164 18.5 -236.5t88.5 -91.5v-41q-156 4 -246 4q-225 0 -346 -4z" />
<glyph unicode="Q" horiz-adv-x="1662" d="M74 668q0 158 53.5 293.5t148.5 232.5t233 152t300 55q265 0 442 -105q158 -91 250 -253.5t92 -356.5q0 -193 -91 -356t-269 -271l127 -59q22 -10 60.5 -29t57.5 -27.5t45.5 -19.5t46 -15.5t36.5 -4.5q14 0 22 8l31 -33l-105 -98q-45 -42 -88.5 -67t-66.5 -25 q-52 0 -179 63t-393 213q-89 5 -141 11t-133 31t-152 69q-150 93 -238.5 254.5t-88.5 337.5zM463 684q0 -179 110.5 -297.5t260.5 -118.5q151 0 260.5 118.5t109.5 297.5t-109.5 296.5t-260.5 117.5q-152 0 -261.5 -117.5t-109.5 -296.5z" />
<glyph unicode="R" horiz-adv-x="1368" d="M37 0v41q19 4 34 11.5t26 22.5t18.5 28.5t12.5 39t7.5 43.5t4 53.5t1.5 56v63.5v10v628q0 171 -13 227q-20 90 -91 101v41h518q253 0 354 -31q149 -44 231.5 -149t82.5 -252q0 -212 -209 -316l291 -485q26 -42 46 -61.5t46 -28.5v-41q-68 -16 -197 -16q-98 0 -153.5 16.5 t-92.5 54t-84 119.5l-301 529l17 20q9 -1 19 -1q41 0 83 11q52 13 88 41q37 30 50.5 66t13.5 86q0 51 -39 96q-34 38 -82.5 52t-120.5 14h-76v-721q0 -86 3 -134.5t13.5 -95.5t33 -69t59.5 -29v-41q-188 4 -295 4q-95 0 -299 -4z" />
<glyph unicode="S" horiz-adv-x="1073" d="M61 391l39 6q61 -79 146.5 -116t216.5 -37q103 0 159 36t56 93q0 34 -12 57t-27.5 35t-48.5 32q-8 5 -12 7q-130 80 -349 201q-62 34 -103.5 112.5t-41.5 161.5q0 194 122.5 307t317.5 113q86 0 158.5 -11.5t114.5 -22.5t55 -11q17 0 53 12h47v-391h-47 q-54 76 -131 114.5t-164 38.5h-17.5h-18t-16.5 -0.5t-18.5 -2t-17 -4.5t-18 -8t-17.5 -11q-20 -15 -33.5 -37.5t-13.5 -42.5q0 -48 27 -64q94 -64 225 -120q161 -71 246.5 -174.5t85.5 -229.5q0 -109 -26.5 -186t-96.5 -144q-145 -139 -407 -139q-164 0 -394 78z" />
<glyph unicode="T" horiz-adv-x="1146" d="M20 977l39 389h1026l41 -389h-41q-24 53 -79.5 67.5t-174.5 14.5h-69v-690q0 -68 1.5 -108t7.5 -84.5t17.5 -69t32 -43t51.5 -23.5v-41q-200 4 -301 4q-93 0 -297 -4v41q22 4 39 15t28.5 24.5t19 39.5t11.5 46.5t6 60t2.5 66t0.5 76.5v690h-68q-118 0 -174 -14.5 t-80 -67.5h-39z" />
<glyph unicode="U" horiz-adv-x="1515" d="M39 1325v41q270 -4 338 -4q74 0 250 4v-41q-19 -3 -33.5 -10t-25 -21.5t-18 -28t-12 -39.5t-7 -44t-4 -54.5t-1.5 -58v-67.5v-5v-321v-55.5v-53.5t0.5 -45t2.5 -45t5.5 -36t9 -36.5t13.5 -29.5q27 -48 81 -77.5t122 -29.5q66 0 120 29.5t81 77.5q9 16 15 37t9 38 t4.5 50.5t2 50t0 62t-0.5 63.5v321q0 176 -12 230q-19 85 -85 97q-1 1 -3 1v41q176 -4 250 -4q52 0 338 4v-41q-25 -4 -43.5 -16t-30.5 -36t-18.5 -48t-9.5 -66t-4 -74t-1 -88v-352v-53.5v-54.5t-1 -47.5t-3 -49.5t-5.5 -43t-8.5 -46.5t-12.5 -41t-17.5 -45t-23 -40.5 t-29 -44q-75 -97 -211.5 -156t-300.5 -59q-165 0 -302 59t-212 156q-37 48 -58.5 95.5t-30.5 109t-10.5 101.5t-1.5 123v36v352q0 57 -0.5 87.5t-3.5 73.5t-10 66.5t-18.5 48t-30 36.5t-43.5 16z" />
<glyph unicode="V" horiz-adv-x="1368" d="M-37 1325v41q168 -4 258 -4q87 0 283 4v-41q-49 -16 -49 -63q0 -17 34 -97l209 -508l209 494q35 86 35 106q0 30 -8 43t-35 25v41q222 -4 289 -4q75 0 219 4v-41q-49 -33 -104 -147l-592 -1215h-56l-575 1194q-3 6 -13 26.5t-12 25t-10.5 20.5t-11.5 21t-11 17t-13 17 t-13 14t-16 15t-17 12z" />
<glyph unicode="W" horiz-adv-x="2070" d="M-27 1325v41q168 -4 248 -4q104 0 330 4v-41q-31 -6 -45 -23.5t-14 -52.5q0 -10 16 -63l184 -520l314 751h49l348 -751l172 442l10 25t10 25.5t8 21.5t7.5 23.5t4.5 21t4 25t1 24.5q0 11 -11.5 26.5t-35.5 24.5v41q246 -4 280 -4q89 0 261 4v-41q-66 -25 -93.5 -60.5 t-81.5 -152.5l-516 -1130h-53l-332 747l-313 -747h-57l-529 1126q-56 120 -84 158t-82 59z" />
<glyph unicode="X" horiz-adv-x="1404" d="M2 0v41q23 8 41.5 19t30 18.5t28 29.5t23.5 31.5t29.5 46.5t33.5 54l308 485l-308 479q-50 77 -74 97.5t-71 23.5v41q168 -4 231 -4q119 0 353 4v-41q-60 -11 -60 -49q0 -15 8 -27l138 -248l100 193q31 60 31 72q0 28 -11 40.5t-42 18.5v41q254 -4 311 -4q88 0 268 4v-41 q-44 -3 -75 -27t-81 -102l-303 -471l342 -549q45 -72 78.5 -99t71.5 -36v-41q-86 4 -248 4q-118 0 -336 -4v41q55 0 55 53q0 16 -32 82l-148 283l-170 -312q-14 -35 -14 -47q0 -56 53 -59v-41q-234 4 -342 4q-79 0 -219 -4z" />
<glyph unicode="Y" d="M-14 1325v41q144 -4 219 -4q105 0 301 4v-41q-22 0 -29.5 -9t-7.5 -34q0 -14 14 -49l156 -336l164 367q6 15 6 28q0 29 -45 33v41q192 -4 274 -4q80 0 236 4v-41q-52 -40 -81.5 -81.5t-64.5 -110.5l-299 -580v-184v-26v-68.5t2 -59t6 -55t11 -43.5t18 -38t27.5 -23.5 t38.5 -14.5v-41q-204 4 -297 4q-91 0 -291 -4v41q30 5 50 24.5t31 44t16.5 71t6.5 84t1 104.5v184l-328 598q-24 45 -38 68t-39.5 52.5t-57.5 53.5z" />
<glyph unicode="Z" horiz-adv-x="1146" d="M18 0v55l562 1016h-134q-132 0 -201 -10t-95 -27.5t-44 -54.5h-47v387h1063v-39l-569 -1032h238q149 0 213 25.5t79 87.5l47 -9l-38 -399h-1074z" />
<glyph unicode="[" horiz-adv-x="776" d="M201 -422v1788h549v-221h-232v-1354h232v-213h-549z" />
<glyph unicode="\" horiz-adv-x="1220" d="M63 1366h297l795 -1794h-307z" />
<glyph unicode="]" horiz-adv-x="776" d="M27 -203h233v1350h-233v221h551v-1792h-551v221z" />
<glyph unicode="^" d="M127 678l283 688h436l284 -688h-342l-157 422l-158 -422h-346z" />
<glyph unicode="_" horiz-adv-x="1024" d="M0 -109h1024v-266h-1024v266z" />
<glyph unicode="`" horiz-adv-x="1024" d="M166 1362h334l155 -266h-233z" />
<glyph unicode="a" horiz-adv-x="1220" d="M74 285q0 142 100 216.5t303 100.5q179 22 213 33q44 22 47 53q0 44 -39 61t-125 17q-103 0 -190 -25.5t-180 -72.5h-45l32 305h39q18 -10 41 -10q9 0 59 10.5t128 20.5t155 10q252 0 362.5 -97.5t110.5 -324.5v-254q0 -139 19.5 -206t87.5 -81v-41q-90 2 -274 2 q-130 0 -193 -2v424q-3 0 -33 -6t-89 -20.5t-118 -32.5q-15 -5 -29 -23.5t-14 -36.5q0 -102 111 -102q43 0 63 18l43 -12l-57 -211q-101 -33 -164 -33q-91 0 -162.5 26.5t-114.5 72t-65 102t-22 119.5z" />
<glyph unicode="b" horiz-adv-x="1331" d="M10 0v41q25 6 43.5 18.5t30 36t18 44t9.5 58t3.5 62t0.5 70.5v706q0 46 -0.5 70.5t-3.5 62t-9.5 58t-18 44t-30 36t-43.5 18.5v41h465v-788q0 -63 6 -110.5t21 -89.5t39.5 -69t63.5 -42t91 -15q103 0 157 59.5t54 159.5q0 113 -60.5 180.5t-135.5 67.5q-59 0 -119 -37 l-37 6l33 258q136 58 250 58q130 0 230.5 -68.5t154 -186.5t53.5 -266q0 -99 -37.5 -198t-103.5 -172q-69 -77 -159 -111.5t-212 -34.5q-86 0 -154.5 26t-134.5 83q-4 -44 -10 -76q-171 6 -186 6q-38 0 -83 -1t-100.5 -2.5t-85.5 -2.5z" />
<glyph unicode="c" horiz-adv-x="999" d="M61 483q0 105 33 199t94.5 166t156 114t210.5 42q81 0 172.5 -20.5t103.5 -20.5q21 0 33 6h45v-324h-45q-26 24 -45 37t-58 25t-89 12q-114 0 -178 -67.5t-64 -174.5q0 -100 67 -162.5t179 -62.5q73 0 120.5 19.5t92.5 64.5l45 -4l-39 -326q-147 -39 -297 -39 q-132 0 -236 39.5t-169 109.5t-98.5 163t-33.5 204z" />
<glyph unicode="d" horiz-adv-x="1349" d="M55 487q0 104 46.5 212.5t127.5 183.5q72 66 151.5 93.5t180.5 27.5q90 0 155 -25t138 -74v133q0 47 -1 74.5t-4 62.5t-10 55.5t-18.5 42t-29.5 33.5t-43 19v41h466v-1036q0 -145 20 -206.5t87 -82.5v-41q-196 4 -270 4q-125 0 -197 -4v449q0 126 -25 172q-54 98 -182 98 q-58 0 -102.5 -21t-70 -55t-38 -72.5t-12.5 -78.5q0 -120 53.5 -180t149.5 -60h16h17t15 0.5t17 1.5t15.5 2.5t18 4t17 6.5t19.5 9l35 -18l-88 -270q-68 -21 -170 -21q-98 0 -184.5 34t-154 98t-106.5 164t-39 224z" />
<glyph unicode="e" horiz-adv-x="1183" d="M55 467q0 248 145.5 392.5t417.5 144.5q250 0 382.5 -137t132.5 -382q0 -11 -3.5 -39.5t-3.5 -33.5h-714q23 -93 90 -140t170 -47q191 0 311 117l43 -4l-41 -305q-43 -19 -75.5 -30.5t-104 -24.5t-152.5 -13q-293 0 -445.5 131.5t-152.5 370.5zM420 616h348 q-15 73 -53.5 111.5t-120.5 38.5q-139 0 -174 -150z" />
<glyph unicode="f" horiz-adv-x="776" d="M47 705v266h127v121q0 307 303 307q81 0 162 -13.5t94 -13.5q15 0 33 6h47v-301h-47q-32 22 -61.5 28.5t-86.5 6.5q-33 0 -63.5 -24t-30.5 -74v-43h232v-266h-221v-375q0 -54 1.5 -87.5t7 -73.5t16.5 -63.5t31.5 -41.5t49.5 -23v-41q-90 2 -276 2q-197 0 -293 -2v41 q66 14 84 82t18 207v375h-127z" />
<glyph unicode="g" horiz-adv-x="1331" d="M55 479q0 233 136 379t350 146q67 0 116 -8t89.5 -28.5t61.5 -35.5t62 -49q5 44 21 88h430v-41q-36 -10 -57.5 -33t-31.5 -65t-12.5 -82t-2.5 -109v-555q0 -243 -46 -328q-60 -111 -177 -157.5t-308 -46.5q-169 0 -414 65l-41 293l41 2q210 -76 375 -76q31 0 57 2.5 t45.5 7.5t35 12t27 16.5t19 21.5t12.5 25.5t8 29.5t4 34t1 37.5v40.5v23v358q0 273 -229 273q-85 0 -144 -59.5t-59 -182.5q0 -84 54 -143.5t128 -59.5q71 0 129 25l47 -18l-86 -267q-88 -24 -178 -24q-196 0 -311 112q-68 66 -110 170.5t-42 206.5z" />
<glyph unicode="h" horiz-adv-x="1294" d="M33 0v41q66 20 85 81t19 208v708q0 58 -1 88.5t-6.5 71t-16 61.5t-30.5 39.5t-50 26.5v41h465v-547q58 95 132.5 140t200.5 45q158 0 244 -82t86 -234v-358q0 -148 20 -208t87 -81v-41q-168 4 -256 4q-108 0 -316 -4v41q66 21 85.5 82.5t19.5 206.5v123q0 125 -26 186 t-93 61q-85 0 -134.5 -63t-49.5 -188v-119q0 -148 19.5 -208t86.5 -81v-41q-184 4 -280 4q-103 0 -291 -4z" />
<glyph unicode="i" horiz-adv-x="628" d="M29 0v41q29 7 48.5 26t30 41t16 62t6.5 72t1 88v313q0 56 -1 88.5t-6.5 71.5t-16 61t-30 40.5t-48.5 25.5v41h463v-641q0 -46 1 -76.5t4.5 -64.5t10.5 -56t18.5 -42t29.5 -32t42 -18v-41q-180 4 -287 4q-94 0 -282 -4zM94 1255q0 88 61.5 149.5t149.5 61.5t150.5 -61.5 t62.5 -149.5t-62.5 -150.5t-150.5 -62.5t-149.5 62.5t-61.5 150.5z" />
<glyph unicode="j" horiz-adv-x="626" d="M-215 -113l51 2q89 -51 182 -51q35 0 58.5 10.5t36 25.5t19 43t8 50t1.5 60v616q0 57 -1 89.5t-6.5 71.5t-16 60.5t-30 40t-48.5 25.5v41h463v-932q0 -166 -8 -219q-19 -125 -107 -195q-52 -41 -114 -56t-152 -15q-30 0 -61.5 2.5t-54.5 5t-55 8.5t-47 9t-47.5 10.5 t-41.5 9.5zM106 1255q0 88 62 150.5t151 62.5q88 0 150.5 -62.5t62.5 -150.5t-62 -150.5t-151 -62.5t-151 62.5t-62 150.5z" />
<glyph unicode="k" d="M33 0v41q29 7 48.5 25.5t30.5 41t16.5 61.5t7 72.5t1.5 88.5v708q0 48 -0.5 74t-3.5 62t-9.5 56t-18 42t-29.5 34t-43 19v41h465v-748l196 232q11 13 11 41q0 25 -48 39v41h46q39 -1 95 -1q94 -2 124 -1q47 0 150.5 1t156.5 1v-41q-48 -7 -98 -39.5t-140 -112.5 l-227 -200l289 -310q70 -75 139.5 -139t101.5 -88v-41q-210 -10 -235 -10h-18q-42 0 -63 1t-56 8t-60 22t-58 44t-67 72l-239 303v-110q0 -139 19 -206t87 -83v-41q-282 6 -299 6q-26 0 -272 -6z" />
<glyph unicode="l" horiz-adv-x="628" d="M31 0v41q66 14 84 82t18 207v706q0 139 -18 207t-84 82v41h463v-1036q0 -141 19 -208t87 -81v-41q-180 4 -276 4q-101 0 -293 -4z" />
<glyph unicode="m" horiz-adv-x="1886" d="M29 0v41q24 6 42 18t29 34.5t17.5 43.5t9.5 57.5t3.5 62.5t0.5 73v311q0 55 -1 87t-6.5 72t-16 62.5t-30 41.5t-48.5 26v41h403q26 -63 43 -158q38 90 126 140.5t206 50.5q110 0 183.5 -38t129.5 -128q42 82 127 124t201 42q79 0 145 -28t111 -92t45 -155v-399 q0 -138 19 -205.5t87 -83.5v-41q-184 4 -284 4q-103 0 -287 -4v41q24 4 42 16t29.5 33t18.5 43t10 57.5t4 64.5t1 75v135q0 123 -11 162q-19 73 -90 73q-89 0 -128.5 -72.5t-39.5 -215.5v-82q0 -138 19.5 -205.5t87.5 -83.5v-41q-180 4 -283 4q-93 0 -289 -4v41q24 6 42 18 t29.5 33.5t18.5 43t10 57t4 63.5t1 74v108q0 153 -22 207.5t-105 54.5q-51 0 -96 -58.5t-45 -174.5v-137q0 -140 19 -206.5t87 -82.5v-41q-188 4 -289 4q-104 0 -280 -4z" />
<glyph unicode="n" horiz-adv-x="1294" d="M31 0v41q29 7 48.5 25.5t30 41t16 62.5t6.5 72.5t1 87.5v311q0 56 -1 88t-6.5 72t-16 62t-30 41t-48.5 26v41h436q23 -89 31 -142q103 175 315 175q134 0 223 -58q24 -16 42 -33.5t31 -40t22.5 -41.5t15 -49.5t8.5 -51t4 -59.5t1 -62t-0.5 -70.5t-0.5 -73.5v-135 q0 -140 20 -207.5t87 -81.5v-41q-188 4 -283 4q-99 0 -287 -4v41q29 7 48.5 25.5t30 41t16 62t7 72.5t1.5 88v131q0 35 -1.5 60.5t-5.5 55t-12 50t-21 38t-33.5 26.5t-47.5 9q-105 0 -144.5 -73t-39.5 -211v-86q0 -141 19 -208t87 -81v-41q-196 4 -278 4q-103 0 -291 -4z " />
<glyph unicode="o" d="M55 485q0 110 39 204.5t111 164.5t181 110t243 40t243.5 -40t181 -110.5t110 -164.5t38.5 -204t-38.5 -204t-110 -164t-181 -110t-243.5 -40q-265 0 -419.5 145.5t-154.5 372.5zM424 485q0 -107 54 -170t151 -63t151 63t54 170q0 109 -55 171.5t-150 62.5 q-97 0 -151 -63.5t-54 -170.5z" />
<glyph unicode="p" horiz-adv-x="1331" d="M10 -381q29 9 48.5 26.5t30 39t16 59.5t7 71.5t1.5 92.5v733q0 56 -1.5 88.5t-7 71.5t-16 61.5t-30 41t-48.5 26.5v41h422q17 -44 25 -84q134 119 309 119q231 0 371.5 -146.5t140.5 -388.5q0 -269 -191 -416q-71 -56 -139 -74t-162 -18q-62 0 -159 19l-88 260l47 18 q42 -12 114 -12q94 0 151.5 58.5t57.5 176.5q0 111 -55.5 174.5t-155.5 63.5q-65 0 -109.5 -22.5t-67 -51.5t-34 -90t-13 -101.5t-1.5 -123.5v-6v-418q0 -59 1.5 -95t7.5 -73t18 -58.5t31.5 -38t48.5 -24.5v-41q-184 4 -279 4q-107 0 -291 -4v41z" />
<glyph unicode="q" horiz-adv-x="1331" d="M55 479q0 117 41 217.5t108.5 166.5t153.5 103.5t177 37.5q118 0 197.5 -23t144.5 -96q7 42 24 86h420v-41q-69 -19 -88 -83t-19 -206v-733q0 -58 2 -95.5t8 -73.5t18 -58t31 -38t48 -24v-41q-94 2 -293 2q-186 0 -276 -2v41q66 19 84 82t18 207v508q0 74 -6 145 q-5 58 -63 108t-134 50q-78 0 -131 -35.5t-74.5 -88t-21.5 -116.5q0 -63 21.5 -110.5t56.5 -73.5t78 -37q34 -10 69 -10q9 0 19 1q44 3 84 19l45 -18l-101 -264q-62 -21 -135 -21q-118 0 -214.5 40.5t-159.5 110.5t-97.5 163t-34.5 200z" />
<glyph unicode="r" horiz-adv-x="925" d="M29 0v41q67 16 85.5 83t18.5 206v311q0 140 -18.5 206t-85.5 83v41h403q14 -45 33 -142q118 175 280 175q92 0 160 -39v-338h-55q-21 26 -47 39.5t-78 13.5q-122 0 -176.5 -64t-54.5 -196v-90q0 -140 19 -206.5t87 -82.5v-41q-94 2 -289 2q-180 0 -282 -2z" />
<glyph unicode="s" horiz-adv-x="886" d="M59 676q0 80 40 153.5t112 116.5q43 27 93.5 40.5t83 15.5t85.5 2q45 0 102 -14t83 -22t61 1h45v-307h-47q-70 92 -180 92q-62 0 -96.5 -16.5t-34.5 -47.5t51.5 -61.5t189.5 -83.5q180 -67 180 -244q0 -160 -110 -248t-324 -88q-62 0 -146.5 16t-146.5 46l-18 276l49 4 q32 -45 92.5 -68.5t106.5 -23.5q164 0 164 68q0 26 -13.5 41t-42.5 26q-18 8 -52 22q-44 19 -65 28t-56.5 25.5t-52.5 26.5t-43.5 26.5t-39.5 30.5t-29 33t-23 38.5t-12.5 44t-5.5 51.5z" />
<glyph unicode="t" horiz-adv-x="813" d="M-4 707v65l399 391h113v-190h244v-266h-244v-242q0 -106 22.5 -150.5t96.5 -44.5q47 0 125 31l43 -2l-19 -283q-65 -23 -131.5 -34.5t-106 -13t-108.5 -1.5q-56 0 -99.5 10t-73 25.5t-50.5 42.5t-32.5 54t-18 68.5t-8 75.5t-1.5 85v379h-151z" />
<glyph unicode="u" horiz-adv-x="1294" d="M31 930v41h463v-522q0 -91 36 -135t121 -44q83 0 116.5 67t33.5 204v102q0 55 -1.5 88t-7 72.5t-16 62t-30 40.5t-48.5 24v41h463v-641q0 -139 19.5 -207t85.5 -82v-41q-180 4 -254 4q-64 0 -174 -4q-23 82 -33 139q-49 -91 -127 -131.5t-223 -40.5q-56 0 -111 19 q-109 35 -160 116.5t-51 216.5v324q0 56 -1 89t-6.5 72.5t-16 61.5t-30 40t-48.5 24z" />
<glyph unicode="v" horiz-adv-x="1220" d="M-20 930v41q78 -4 237 -4q209 0 311 4v-41q-23 -9 -34 -20.5t-11 -35.5q0 -5 3.5 -14t8 -19t5.5 -14l125 -317l139 344q6 12 6 29q0 20 -18.5 33t-53.5 14v41q238 -4 301 -4q84 0 240 4v-41q-53 -27 -87 -67t-73 -111l-452 -828h-33l-442 813q-8 14 -22 40t-19.5 36 t-16.5 29t-16.5 26t-15.5 19.5t-17.5 17t-18 11t-21.5 9.5t-25 5z" />
<glyph unicode="w" horiz-adv-x="1738" d="M-12 928v41q63 0 168.5 -1t146.5 -1q154 0 234 2v-41q-31 -7 -41.5 -24t-10.5 -50q0 -8 25 -80l90 -233l262 510h12l285 -506l113 297q6 18 6 32q0 45 -61 54v41q100 -2 294 -2q162 0 242 2v-41q-52 -10 -79.5 -39t-69.5 -115l-406 -831h-22l-314 583l-280 -583h-21 l-383 768q-64 128 -98 167.5t-92 49.5z" />
<glyph unicode="x" horiz-adv-x="1183" d="M0 0v41q41 24 71.5 63t78.5 117l180 291l-185 283q-6 9 -18 27.5t-16 24.5t-13.5 19.5t-14 18l-13.5 13.5t-16 13t-17 9.5t-21 9.5v41q72 -2 222 -2q222 0 333 2v-41q-41 -14 -41 -58q0 -31 23 -75l68 -135l51 106l8.5 17l8.5 17t6 15t5.5 17t3 16t1.5 20q0 29 -12.5 42 t-43.5 18v41q86 -2 256 -2q178 0 266 2v-41q-18 -7 -29.5 -14t-36 -33.5t-56.5 -73.5l-199 -297l235 -377q13 -21 43.5 -51.5t57.5 -42.5v-41q-126 4 -201 4q-108 0 -354 -4v41q29 9 41 30.5t12 39.5q0 14 -4 25t-12.5 24t-12.5 22l-88 195l-69 -154q-52 -109 -52 -123 q0 -49 64 -59v-41q-188 4 -301 4q-73 0 -209 -4z" />
<glyph unicode="y" horiz-adv-x="1220" d="M-14 930v41q92 -2 282 -2q197 0 299 2v-41q-30 -2 -46.5 -11.5t-16.5 -35.5q0 -27 14 -58l115 -295l125 285q12 30 12 57q0 22 -17.5 39.5t-52.5 18.5v41q92 -2 279 -2q199 0 297 2v-41q-24 -8 -41.5 -16.5t-42 -31.5t-43.5 -57l-561 -1003q-7 -13 -20.5 -36t-19 -34 t-11 -24.5t-5.5 -22.5q0 -22 1 -32t9 -22t25 -20v-41q-72 2 -217 2q-172 0 -252 -2l342 623l-301 539q-57 102 -82.5 133t-70.5 45z" />
<glyph unicode="z" horiz-adv-x="1036" d="M27 0v68l452 637h-196q-72 0 -102.5 -16.5t-51.5 -55.5l-41 4l25 334h897v-35l-455 -660h23q28 0 78 -0.5t70 -0.5t55 1.5t51.5 6t39 11.5t37.5 19t29 29l41 -2l-31 -340h-921z" />
<glyph unicode="{" horiz-adv-x="739" d="M143 471q57 25 79 65t22 123q0 75 -7.5 209t-7.5 191v39v37.5t1 31t3 31.5t5.5 26.5t9 27.5t13 23t18.5 25q21 24 44.5 38t54.5 20t52.5 7t63.5 1h213v-55q-50 3 -78.5 -5.5t-43.5 -39t-18.5 -69t-3.5 -114.5q0 -20 3 -129t3 -196q0 -149 -94 -228q-29 -24 -62 -37 t-51 -15.5t-65 -6.5q47 -4 66 -6.5t51 -15.5t61 -37q57 -50 75.5 -111t18.5 -160q0 -44 -3 -143t-3 -150q0 -135 22.5 -177t104.5 -42q1 0 8.5 1t8.5 1v-55h-213q-44 0 -63 1t-51.5 6.5t-56 20t-44.5 38.5q-14 16 -24 36.5t-15 33t-8 42t-3.5 37.5t0 47.5t0.5 44.5 q0 56 7.5 189.5t7.5 208.5q0 83 -22 124t-79 66z" />
<glyph unicode="|" horiz-adv-x="667" d="M201 -453v1819h266v-1819h-266z" />
<glyph unicode="}" horiz-adv-x="739" d="M33 -369q50 -3 78 5t43.5 36.5t19.5 66t4 109.5q0 54 -5 152.5t-5 140.5q0 99 19 159.5t77 111.5q28 24 60.5 37t51 15.5t66.5 6.5q-48 4 -66.5 6.5t-51 15.5t-60.5 37q-94 79 -94 228q0 89 4 197.5t4 127.5q0 142 -22 185t-107 43h-16v55h213q42 0 63.5 -1t52.5 -7 t54.5 -20t44.5 -38q15 -16 25 -36t15.5 -34t8 -41.5t3 -37.5t0 -47t-0.5 -45q0 -58 -8 -192t-8 -208q0 -83 21.5 -123t78.5 -65q-55 -24 -77.5 -65t-22.5 -125q0 -75 8 -208t8 -190v-35v-33.5t-0.5 -28.5t-2 -28.5t-4 -24t-6 -25t-9 -21.5t-13 -23.5t-16.5 -21.5 q-21 -24 -44.5 -38.5t-56 -20t-51.5 -6.5t-63 -1h-213v55z" />
<glyph unicode="~" d="M80 608q66 157 151 233.5t205 76.5q68 0 214 -52.5t200 -52.5q58 0 119 109l209 -158q-74 -167 -155 -237t-224 -70q-51 0 -196 51t-187 51q-39 0 -68.5 -29t-58.5 -81z" />
<glyph unicode="&#xa1;" horiz-adv-x="849" d="M139 -354q25 12 37 20t25.5 27.5t19.5 53.5t8 89l25 633h342l25 -633q3 -71 15 -109.5t27.5 -52t49.5 -28.5v-41q-96 2 -287 2t-287 -2v41zM190 780q0 92 67 158t159 66t157.5 -65t65.5 -159q0 -92 -65.5 -158.5t-157.5 -66.5q-94 0 -160 66.5t-66 158.5z" />
<glyph unicode="&#xa2;" d="M186 686q0 226 124.5 373t332.5 162v219h223v-236q19 -4 41 -11t36 -11t20 -4q19 0 38 8h48v-324h-48q-50 35 -93 50.5t-107 15.5q-114 0 -180 -66.5t-66 -159.5q0 -68 32 -122.5t89 -83.5q24 -13 51.5 -18.5t40 -6t45.5 -0.5q119 0 211 80h45l-39 -328q-67 -21 -164 -33 v-229h-223v229q-166 23 -266 99q-89 67 -140 172t-51 225z" />
<glyph unicode="&#xa3;" d="M90 0v41q54 17 85.5 76t51.5 178l60 352h-127v266h174l2 23q21 222 135 343.5t279 121.5q59 0 112 -11.5t85.5 -22.5t41.5 -11q13 0 33 10h47v-391h-41q-26 83 -58.5 112t-95.5 29q-65 0 -103 -51.5t-58 -151.5h211v-266h-256l-66 -371h156q184 0 252.5 29.5t83.5 108.5 l43 -4l-33 -410h-1014z" />
<glyph unicode="&#xa4;" horiz-adv-x="1044" d="M51 360l135 129q-73 129 -73 236q0 109 73 236l-135 131l94 94l136 -133q130 75 241 75q106 0 240 -75l135 133l94 -94l-135 -131q76 -132 76 -236q0 -101 -76 -236l135 -129l-94 -94l-135 133q-134 -75 -240 -75q-111 0 -241 75l-136 -133zM248 727q0 -113 80 -192.5 t194 -79.5q113 0 194 80t81 192q0 113 -84 191.5t-191 78.5q-114 0 -194 -79t-80 -191z" />
<glyph unicode="&#xa5;" d="M70 1325v41q144 -4 219 -4q51 0 219 4v-41q-22 0 -29.5 -9t-7.5 -34q0 -16 14 -49l150 -414l164 445q8 20 8 28q0 29 -45 33v41q168 -4 231 -4t195 4v-41q-94 -71 -144 -192l-96 -244h164v-205h-240l-43 -109h283v-204h-287v-58v-22v-48.5t2 -45.5t5.5 -46t11 -39t18 -34 t27 -22.5t37.5 -14.5v-41q-192 4 -287 4q-89 0 -289 -4v41q28 5 47.5 21.5t29.5 37.5t16 56.5t7 63.5t1 73v78h-297v204h290l-45 109h-245v205h163l-112 262q-46 108 -135 174z" />
<glyph unicode="&#xa6;" horiz-adv-x="667" d="M201 287h266v-709h-266v709zM201 653v713h266v-713h-266z" />
<glyph unicode="&#xa7;" d="M147 487q0 210 205 330q-42 51 -64 104t-22 130q0 73 24 135.5t72 111.5t127 77t181 28q56 0 141.5 -23.5t95.5 -23.5q3 0 9 -0.5t9 -0.5t8 2.5t11 8.5h43v-338h-43q-87 90 -184 90q-63 0 -94 -26t-31 -70q0 -41 26 -77t68 -64t92.5 -56t101.5 -62t93 -73.5t68 -97.5 t26 -127q0 -93 -50.5 -181.5t-156.5 -146.5q52 -70 69 -125.5t17 -128.5q0 -142 -104 -231.5t-299 -89.5q-63 0 -116.5 10t-83.5 20.5t-36 10.5q-14 0 -33 -15h-47v332h47q28 -38 81 -59t110 -21q49 0 81 23t32 65q0 57 -68.5 117.5t-273.5 192.5q-51 33 -91.5 104.5 t-40.5 144.5zM487 485q0 -25 12 -47t38.5 -44t46 -35t56.5 -35q4 -2 5.5 -3l4.5 -3t5 -3q109 52 109 144q0 23 -3.5 41t-17 35.5t-20.5 26.5t-34.5 26t-36.5 22.5t-48 26.5q-117 -67 -117 -152z" />
<glyph unicode="&#xa8;" horiz-adv-x="1024" d="M135 1231q0 69 49.5 118.5t118.5 49.5q68 0 117 -49t49 -119q0 -69 -48.5 -117.5t-117.5 -48.5t-118.5 48.5t-49.5 117.5zM555 1231q0 70 49 119t117 49t118 -49t50 -119q0 -69 -49.5 -117.5t-118.5 -48.5t-117.5 48t-48.5 118z" />
<glyph unicode="&#xa9;" horiz-adv-x="1517" d="M35 682q0 145 57 277.5t154 229t231.5 153.5t282.5 57t282 -57t231 -153t154.5 -228.5t57.5 -278.5t-57.5 -278.5t-154.5 -228.5t-231 -153t-282 -57q-147 0 -281 57t-231.5 153t-155 229t-57.5 278zM180 682q0 -159 78 -294t211.5 -213.5t290.5 -78.5t290.5 78.5 t211 213.5t77.5 294t-77.5 294.5t-211 214.5t-290.5 79q-156 0 -289.5 -79t-212 -214.5t-78.5 -294.5zM395 676q0 178 109.5 286.5t314.5 108.5q32 0 95 -14.5t81 -14.5q8 0 15 7h32v-213h-24q-40 35 -85 49t-108 14q-89 0 -148 -60.5t-59 -158.5q0 -91 59 -152t169 -61 q106 0 182 76l29 -4l-21 -205q-98 -39 -198 -39q-112 0 -181 24q-120 39 -191 138.5t-71 218.5z" />
<glyph unicode="&#xaa;" horiz-adv-x="813" d="M41 965q0 85 66 129.5t200 60.5q129 14 150 22q21 11 22 29q0 27 -25 36t-81 9q-124 0 -244 -57h-33l25 184h24q12 -6 27 -6q6 0 39 7t85 13.5t103 6.5q165 0 239.5 -59t74.5 -197v-152q0 -35 0.5 -53t4 -43t10.5 -37.5t20.5 -23.5t33.5 -15v-24h-311v254 q-105 -17 -142.5 -32.5t-37.5 -39.5q0 -62 69 -62q25 0 41 13l29 -8l-39 -127q-59 -19 -108 -19q-119 0 -180.5 56t-61.5 135z" />
<glyph unicode="&#xab;" horiz-adv-x="1110" d="M33 682l254 371h313l-240 -371l240 -369h-309zM508 682l254 371h313l-239 -371l239 -369h-309z" />
<glyph unicode="&#xac;" d="M98 840v225h1061v-610h-280v385h-781z" />
<glyph unicode="&#xad;" horiz-adv-x="702" d="M82 346v277h539v-277h-539z" />
<glyph unicode="&#xae;" horiz-adv-x="1028" d="M102 1024q0 170 121 291t291 121t291 -121t121 -291t-121 -291t-291 -121t-291 121t-121 291zM172 1024q0 -141 100.5 -241.5t241.5 -100.5t241.5 100.5t100.5 241.5t-100.5 241.5t-241.5 100.5t-241.5 -100.5t-100.5 -241.5zM334 819v15q22 3 27.5 25t5.5 73v196 q0 27 -0.5 40t-3.5 29t-10 22.5t-19 7.5v16h160q40 0 57.5 -0.5t45 -6t48.5 -17.5q64 -39 64 -109q0 -63 -68 -98l94 -152q15 -22 29 -26v-13q-25 -6 -66 -6q-45 0 -64 12t-42 50l-98 161l8 9q33 -2 55.5 13t22.5 48q0 47 -74 47h-21v-225q0 -29 0.5 -41.5t3.5 -28t10.5 -22 t20.5 -7.5v-12q-31 2 -90 2q-65 0 -96 -2z" />
<glyph unicode="&#xaf;" horiz-adv-x="1024" d="M160 1128v213h706v-213h-706z" />
<glyph unicode="&#xb0;" d="M381 1145q0 101 72.5 173.5t175.5 72.5q101 0 174.5 -72.5t73.5 -173.5t-73 -172.5t-175 -71.5t-175 71.5t-73 172.5zM526 1145q0 -44 30.5 -74.5t72.5 -30.5t72 31t30 74t-29.5 73.5t-72.5 30.5q-42 0 -72.5 -30t-30.5 -74z" />
<glyph unicode="&#xb1;" d="M98 0v266h1061v-266h-1061zM98 725v266h398v400h266v-400h397v-266h-397v-367h-266v367h-398z" />
<glyph unicode="&#xb2;" horiz-adv-x="849" d="M68 547v26q24 28 47 58t44 59t29 39q30 39 78.5 101t71.5 92.5t50 70t37.5 66t10.5 47.5q0 55 -32.5 81.5t-104.5 26.5q-91 0 -156 -81h-32v233h26q20 -10 27 -10q4 0 28.5 7.5t68.5 15t95 7.5q157 0 243.5 -61.5t86.5 -175.5q0 -71 -72 -187t-198 -249h51q120 0 168 15 t61 63l33 -5l-29 -239h-632z" />
<glyph unicode="&#xb3;" horiz-adv-x="849" d="M90 782h29q90 -84 198 -84q154 0 154 88q0 34 -13.5 55.5t-41 30.5t-55.5 11.5t-72 1.5v174q7 0 17.5 -1t17.5 -1q58 0 90 22t32 54q0 33 -24.5 55t-61.5 27.5t-76.5 -1t-74 -30.5t-49.5 -60h-29v240h29q8 -8 24 -8q4 0 30 7.5t65.5 15t76.5 7.5q113 0 172 -16 q78 -22 123 -77t45 -130q0 -80 -47.5 -130t-130.5 -62q101 -12 152 -64.5t51 -130.5q0 -113 -96 -181.5t-267 -68.5q-150 0 -245 39z" />
<glyph unicode="&#xb4;" horiz-adv-x="1024" d="M369 1096l159 266h330l-252 -266h-237z" />
<glyph unicode="&#xb5;" horiz-adv-x="1294" d="M131 -369v1338h361v-520q0 -90 36 -134.5t121 -44.5q82 0 116 66t34 203v430h360v-639q0 -139 19.5 -207t85.5 -82v-41q-180 4 -254 4q-64 0 -174 -4q-22 73 -33 139q-38 -90 -101 -131t-182 -41q-26 0 -76 13l48 -349h-361z" />
<glyph unicode="&#xb6;" d="M70 915q0 203 125 325t362 122h451q121 0 180 4v-41q-25 -4 -43 -16.5t-29.5 -36t-18 -46.5t-10 -65t-4 -74.5t-0.5 -89.5v-1052q0 -167 18.5 -242t86.5 -86v-41q-136 4 -205 4q-120 0 -158 -4v1421q0 161 -12 234.5t-49 73.5q-47 0 -61.5 -74.5t-14.5 -233.5v-1421 q-40 4 -51 4q-270 0 -313 -4v41q70 19 88 91t18 237v524q-181 23 -270.5 133.5t-89.5 312.5z" />
<glyph unicode="&#xb7;" d="M406 686q0 92 65.5 157.5t157.5 65.5t157.5 -65.5t65.5 -157.5t-65.5 -157.5t-157.5 -65.5t-157.5 65.5t-65.5 157.5z" />
<glyph unicode="&#xb8;" horiz-adv-x="1024" d="M451 -334h16q43 -43 104 -43q47 0 75 24.5t28 67.5q0 35 -20 56.5t-54 21.5q-28 0 -43.5 -11t-26.5 -34l-71 6l24 254h121l-16 -143q32 16 71 16q70 0 115 -49t45 -117q0 -93 -65 -146.5t-160 -53.5q-68 0 -133 18z" />
<glyph unicode="&#xb9;" horiz-adv-x="849" d="M195 1223v28l317 138h29v-646q0 -88 9 -115q16 -44 60 -57v-24q-61 2 -188 2q-130 0 -193 -2v24q24 13 37.5 27t19 39.5t6.5 42.5t1 63v383q0 45 -20 71t-78 26z" />
<glyph unicode="&#xba;" horiz-adv-x="886" d="M61 1087q0 135 101.5 223.5t279.5 88.5q180 0 281.5 -88.5t101.5 -223.5t-102 -223t-281 -88q-178 0 -279.5 87.5t-101.5 223.5zM311 1087q0 -61 35.5 -100t97.5 -39q61 0 96 38.5t35 100.5q0 63 -35 101.5t-96 38.5q-62 0 -97.5 -39t-35.5 -101z" />
<glyph unicode="&#xbb;" horiz-adv-x="1110" d="M33 313l239 369l-239 371h315l252 -371l-256 -369h-311zM508 313l240 369l-240 371h315l252 -371l-256 -369h-311z" />
<glyph unicode="&#xbc;" horiz-adv-x="1996" d="M158 1223v28l317 138h29v-646v-47.5t3.5 -39.5t10 -40t20.5 -25.5t35 -19.5v-24q-61 2 -188 2q-129 0 -192 -2v24q16 9 27.5 17.5t18.5 23.5t10.5 22t5 32.5t1.5 33v43.5v383q0 44 -19.5 70.5t-78.5 26.5zM537 0l585 1366h246l-584 -1366h-247zM1174 186v138l569 520h29 v-510h100v-148h-100v-14q0 -73 15 -104t56 -43v-25q-63 2 -198 2q-120 0 -183 -2v25q36 11 51 40.5t15 106.5v14h-354zM1372 322h184v186z" />
<glyph unicode="&#xbd;" horiz-adv-x="1996" d="M178 1223v28l318 138h28v-646v-39.5t2 -34.5t6 -35t11.5 -26t20.5 -23.5t30 -13.5v-24q-61 2 -188 2q-130 0 -193 -2v24q16 9 27.5 17.5t18.5 23.5t10.5 22t5 32.5t1.5 33v43.5v383q0 44 -19.5 70.5t-78.5 26.5zM557 0l586 1366h246l-584 -1366h-248zM1192 0v29 q71 84 121 153q26 34 78.5 101t72.5 94t48.5 68.5t38.5 67t10 46.5q0 56 -32.5 83.5t-105.5 27.5q-89 0 -157 -84h-31v233h27q16 -8 24 -8q6 0 29.5 7.5t67 15.5t96.5 8q158 0 244.5 -63t86.5 -177q0 -71 -73 -188t-197 -248h49q121 0 169.5 14.5t62.5 63.5l32 -2l-30 -242 h-631z" />
<glyph unicode="&#xbe;" horiz-adv-x="1996" d="M94 782h29q90 -84 199 -84q153 0 153 88q0 34 -13.5 55.5t-41 30.5t-55.5 11.5t-72 1.5v174q7 0 17.5 -1t17.5 -1q58 0 90.5 22t32.5 54q0 33 -24.5 55t-61 27.5t-76 -1t-74.5 -30.5t-51 -60h-29v240h29q12 -8 24 -8q4 0 30 7.5t65.5 15t76.5 7.5q113 0 172 -16 q78 -22 123 -77t45 -130q0 -80 -47.5 -130t-130.5 -62q101 -12 152 -64.5t51 -130.5q0 -113 -96 -181.5t-267 -68.5q-150 0 -245 39zM578 0l587 1364h244l-584 -1364h-247zM1214 186v138l570 520h28v-510h103v-148h-103v-14q0 -74 15 -104.5t57 -42.5v-25q-63 2 -198 2 q-120 0 -183 -2v25q36 12 52 40.5t16 106.5v14h-357zM1413 322h186v186z" />
<glyph unicode="&#xbf;" horiz-adv-x="962" d="M72 -70q0 76 24.5 137.5t64 107t81.5 86t84 95.5t65 115h301q-4 -58 -28 -114t-54 -93q-16 -20 -46.5 -57t-41.5 -51t-29.5 -40.5t-25 -42.5t-12.5 -37.5t-6 -43.5q0 -55 45.5 -91t119.5 -36q75 0 137.5 37.5t90.5 97.5h47v-408h-47q-17 11 -29 11q-3 0 -37 -8.5 t-96.5 -16.5t-134.5 -8q-228 0 -350.5 98.5t-122.5 261.5zM301 778q0 94 65.5 160t157.5 66q94 0 159 -66t65 -160q0 -92 -65 -157.5t-159 -65.5q-93 0 -158 65t-65 158z" />
<glyph unicode="&#xc0;" horiz-adv-x="1404" d="M-4 0v41q14 15 28 35.5t20.5 32.5t21 41.5t18.5 37.5l610 1258h45l572 -1239q47 -103 100 -166v-41q-140 4 -215 4q-91 0 -287 -4v41q45 10 45 45q0 33 -10 66l-18 57h-469l-31 -88q-6 -12 -6 -25q0 -24 6.5 -33t38.5 -22v-41q-218 4 -297 4q-111 0 -172 -4zM340 1759 h342l166 -266h-242zM547 485h287l-134 346z" />
<glyph unicode="&#xc1;" horiz-adv-x="1404" d="M-4 0v41q14 15 28 35.5t20.5 32.5t21 41.5t18.5 37.5l610 1258h45l572 -1239q47 -103 100 -166v-41q-140 4 -215 4q-91 0 -287 -4v41q45 10 45 45q0 33 -10 66l-18 57h-469l-31 -88q-6 -12 -6 -25q0 -24 6.5 -33t38.5 -22v-41q-218 4 -297 4q-111 0 -172 -4zM547 485h287 l-134 346zM557 1493l170 266h340l-262 -266h-248z" />
<glyph unicode="&#xc2;" horiz-adv-x="1404" d="M-4 0v41q14 15 28 35.5t20.5 32.5t21 41.5t18.5 37.5l610 1258h45l572 -1239q47 -103 100 -166v-41q-140 4 -215 4q-91 0 -287 -4v41q45 10 45 45q0 33 -10 66l-18 57h-469l-31 -88q-6 -12 -6 -25q0 -24 6.5 -33t38.5 -22v-41q-218 4 -297 4q-111 0 -172 -4zM379 1493 l164 276h352l162 -276h-240l-98 147l-98 -147h-242zM547 485h287l-134 346z" />
<glyph unicode="&#xc3;" horiz-adv-x="1404" d="M-4 0v41q14 15 28 35.5t20.5 32.5t21 41.5t18.5 37.5l610 1258h45l572 -1239q47 -103 100 -166v-41q-140 4 -215 4q-91 0 -287 -4v41q45 10 45 45q0 33 -10 66l-18 57h-469l-31 -88q-6 -12 -6 -25q0 -24 6.5 -33t38.5 -22v-41q-218 4 -297 4q-111 0 -172 -4zM373 1507 q30 149 71 212t117 63q47 0 172 -51.5t146 -51.5q10 0 18.5 1.5t15.5 5.5t12.5 7.5t10.5 10.5t8 11t7 13t5.5 12.5t4.5 13t4 11.5h110q-22 -149 -63 -211.5t-115 -62.5q-43 0 -160.5 54t-140.5 54q-51 0 -77 -22t-34 -70h-112zM547 485h287l-134 346z" />
<glyph unicode="&#xc4;" horiz-adv-x="1404" d="M-4 0v41q14 15 28 35.5t20.5 32.5t21 41.5t18.5 37.5l610 1258h45l572 -1239q47 -103 100 -166v-41q-140 4 -215 4q-91 0 -287 -4v41q45 10 45 45q0 33 -10 66l-18 57h-469l-31 -88q-6 -12 -6 -25q0 -24 6.5 -33t38.5 -22v-41q-218 4 -297 4q-111 0 -172 -4zM285 1634 q0 71 51.5 121.5t122.5 50.5t121.5 -50t50.5 -122t-50 -123t-122 -51q-71 0 -122.5 51t-51.5 123zM547 485h287l-134 346zM799 1634q0 71 50.5 122.5t121.5 51.5q72 0 123 -51.5t51 -122.5t-51 -121.5t-123 -50.5t-122 50.5t-50 121.5z" />
<glyph unicode="&#xc5;" horiz-adv-x="1404" d="M-4 0v41q14 15 28 35.5t20.5 32.5t21 41.5t18.5 37.5l610 1258h45l572 -1239q47 -103 100 -166v-41q-140 4 -215 4q-91 0 -287 -4v41q45 10 45 45q0 33 -10 66l-18 57h-469l-31 -88q-6 -12 -6 -25q0 -24 6.5 -33t38.5 -22v-41q-218 4 -297 4q-111 0 -172 -4zM506 1700 q0 88 57.5 147.5t155.5 59.5q97 0 154 -59.5t57 -147.5q0 -90 -57.5 -147.5t-153.5 -57.5t-154.5 58.5t-58.5 146.5zM547 485h287l-134 346zM631 1700q0 -42 25.5 -64t62.5 -22q36 0 61 21.5t25 64.5q0 38 -24 63t-62 25q-41 0 -64.5 -24.5t-23.5 -63.5z" />
<glyph unicode="&#xc6;" horiz-adv-x="1777" d="M-70 0v41q17 12 34 28t28 28t28.5 38t24 36t27.5 45t26 44l588 954q6 9 12.5 27t6.5 25q0 41 -56 55v45h1053v-360h-37q-20 37 -59.5 51t-114.5 14h-406l45 -201h195q102 0 159 19.5t87 68.5h45q-6 -65 -6 -135q0 -223 6 -334h-45q-30 86 -238 86h-131l39 -169 q11 -48 23.5 -68.5t46 -31.5t100.5 -11h62q102 0 157.5 26t65.5 87l43 -5l-37 -403h-846v47q35 2 51.5 18.5t16.5 53.5q0 1 -2 13.5t-2 14.5l-9 68h-448l-23 -61q-8 -24 -8 -39q0 -33 12.5 -50t42.5 -24v-41q-226 4 -344 4q-73 0 -213 -4zM584 465h288l-75 393z" />
<glyph unicode="&#xc7;" horiz-adv-x="1294" d="M61 670q0 357 234 563q103 93 226.5 131.5t295.5 38.5q57 0 170 -26.5t148 -26.5q9 0 30 14h49v-391h-32q-76 67 -159 97t-194 30q-162 0 -270 -117t-108 -307q0 -113 45 -203.5t141.5 -147.5t230.5 -57q80 0 169 35.5t159 108.5l41 -4l-35 -373q-158 -64 -377 -70 l-6 -125q40 17 64 17q67 0 106 -47t39 -101q0 -62 -34 -106t-81 -63t-98 -19q-68 0 -145 16l-13 135h21q22 -22 43.5 -32.5t56.5 -10.5q105 0 105 82q0 23 -17.5 40.5t-50.5 17.5q-45 0 -67 -43l-82 8l20 237q-133 25 -233 70t-183 127q-99 98 -154 230.5t-55 271.5z" />
<glyph unicode="&#xc8;" horiz-adv-x="1110" d="M37 0v43q19 3 34 11.5t25.5 23.5t18 30t12.5 41t8 46t4 54.5t1.5 58t0.5 63.5v626v22q0 54 -0.5 80t-3 67.5t-9 62.5t-18 44.5t-30 35.5t-43.5 16v41h997v-371h-41q-20 40 -47.5 58t-81.5 18h-342v-211h187q91 0 134 19t64 73h43q-4 -110 -4 -174q0 -43 4 -293h-43 q-25 55 -62.5 67.5t-111.5 12.5h-16h-195v-186q0 -31 6 -48.5t22.5 -25t30.5 -9t46 -1.5h159q116 0 170.5 26.5t73.5 86.5l41 -5l-39 -403h-995zM190 1759h342l166 -266h-243z" />
<glyph unicode="&#xc9;" horiz-adv-x="1110" d="M37 0v43q19 3 34 11.5t25.5 23.5t18 30t12.5 41t8 46t4 54.5t1.5 58t0.5 63.5v626v22q0 54 -0.5 80t-3 67.5t-9 62.5t-18 44.5t-30 35.5t-43.5 16v41h997v-371h-41q-20 40 -47.5 58t-81.5 18h-342v-211h187q91 0 134 19t64 73h43q-4 -110 -4 -174q0 -43 4 -293h-43 q-25 55 -62.5 67.5t-111.5 12.5h-16h-195v-186q0 -31 6 -48.5t22.5 -25t30.5 -9t46 -1.5h159q116 0 170.5 26.5t73.5 86.5l41 -5l-39 -403h-995zM408 1493l170 266h340l-263 -266h-247z" />
<glyph unicode="&#xca;" horiz-adv-x="1110" d="M37 0v43q19 3 34 11.5t25.5 23.5t18 30t12.5 41t8 46t4 54.5t1.5 58t0.5 63.5v626v22q0 54 -0.5 80t-3 67.5t-9 62.5t-18 44.5t-30 35.5t-43.5 16v41h997v-371h-41q-20 40 -47.5 58t-81.5 18h-342v-211h187q91 0 134 19t64 73h43q-4 -110 -4 -174q0 -43 4 -293h-43 q-25 55 -62.5 67.5t-111.5 12.5h-16h-195v-186q0 -31 6 -48.5t22.5 -25t30.5 -9t46 -1.5h159q116 0 170.5 26.5t73.5 86.5l41 -5l-39 -403h-995zM215 1493l164 276h352l162 -276h-240l-98 147l-98 -147h-242z" />
<glyph unicode="&#xcb;" horiz-adv-x="1110" d="M37 0v43q19 3 34 11.5t25.5 23.5t18 30t12.5 41t8 46t4 54.5t1.5 58t0.5 63.5v626v22q0 54 -0.5 80t-3 67.5t-9 62.5t-18 44.5t-30 35.5t-43.5 16v41h997v-371h-41q-20 40 -47.5 58t-81.5 18h-342v-211h187q91 0 134 19t64 73h43q-4 -110 -4 -174q0 -43 4 -293h-43 q-25 55 -62.5 67.5t-111.5 12.5h-16h-195v-186q0 -31 6 -48.5t22.5 -25t30.5 -9t46 -1.5h159q116 0 170.5 26.5t73.5 86.5l41 -5l-39 -403h-995zM125 1634q0 72 50 122t122 50q71 0 122.5 -50.5t51.5 -121.5q0 -72 -51 -123t-123 -51t-122 51t-50 123zM639 1634 q0 71 50.5 122.5t121.5 51.5q72 0 123 -51.5t51 -122.5t-51 -121.5t-123 -50.5t-122 50.5t-50 121.5z" />
<glyph unicode="&#xcc;" horiz-adv-x="665" d="M37 0v41q19 3 34 10.5t26 23t18.5 29t12.5 40.5t7.5 45.5t4 55.5t1.5 58.5v65.5v628v66.5t-1.5 58t-4 55t-7.5 45t-12.5 40.5t-18.5 29t-26 23t-34 11v41q218 -4 301 -4q89 0 289 4v-41q-25 -4 -43 -16.5t-29.5 -36t-18 -46.5t-10 -65t-4 -74.5t-0.5 -89.5v-628 q0 -167 18.5 -242t86.5 -86v-41q-196 4 -301 4q-97 0 -289 -4zM49 1759h344l166 -266h-244z" />
<glyph unicode="&#xcd;" horiz-adv-x="665" d="M37 0v41q19 3 34 10.5t26 22.5t18.5 29t12.5 40.5t7.5 45t4 55.5t1.5 58.5v66.5v628v67t-1.5 58.5t-4 55t-7.5 45t-12.5 40t-18.5 28.5t-26 23t-34 11v41q218 -4 301 -4q89 0 289 4v-41q-25 -4 -43 -16.5t-29.5 -36t-18 -46.5t-10 -65t-4 -74.5t-0.5 -89.5v-628 q0 -167 18.5 -242t86.5 -86v-41q-196 4 -299 4q-99 0 -291 -4zM104 1493l168 266h342l-264 -266h-246z" />
<glyph unicode="&#xce;" horiz-adv-x="665" d="M-2 1493l164 276h352l162 -276h-240l-98 147l-98 -147h-242zM37 0v41q19 3 34 10.5t26 22.5t18.5 29t12.5 40.5t7.5 45t4 55.5t1.5 58.5v66.5v628v67t-1.5 58.5t-4 55t-7.5 45t-12.5 40t-18.5 28.5t-26 23t-34 11v41q218 -4 301 -4q89 0 289 4v-41q-25 -4 -43 -16.5 t-29.5 -36.5t-18 -47t-10 -65t-4 -74t-0.5 -89v-628q0 -57 0.5 -89t4 -74t10 -65.5t18 -47.5t29.5 -36t43 -16v-41q-196 4 -301 4q-97 0 -289 -4z" />
<glyph unicode="&#xcf;" horiz-adv-x="665" d="M-98 1634q0 72 50 122t122 50q71 0 122.5 -50.5t51.5 -121.5q0 -72 -51 -123t-123 -51t-122 51t-50 123zM37 0v41q19 3 34 10.5t26 22.5t18.5 28.5t12.5 40t7.5 45t4 55.5t1.5 59v67v628v68t-1.5 58.5t-4 55t-7.5 45t-12.5 40t-18.5 28.5t-26 22.5t-34 10.5v41 q218 -4 301 -4q89 0 289 4v-41q-25 -4 -43 -16.5t-29.5 -36.5t-18 -47t-10 -65t-4 -74t-0.5 -89v-628q0 -57 0.5 -89t4 -74t10 -65.5t18 -47.5t29.5 -36t43 -16v-41q-196 4 -301 4q-97 0 -289 -4zM416 1634q0 71 50.5 122.5t121.5 51.5q72 0 123 -51.5t51 -122.5t-51 -121.5 t-123 -50.5t-122 50.5t-50 121.5z" />
<glyph unicode="&#xd0;" horiz-adv-x="1441" d="M4 559v295h121v143v65.5t-1.5 57.5t-4 55.5t-7 45.5t-12.5 41t-19 29t-26 23.5t-35 10.5v41h504q229 0 338 -31q232 -65 370 -239.5t138 -407.5q0 -215 -107.5 -377.5t-301.5 -242.5q-167 -68 -435 -68h-506v41q20 3 35 11t26 23.5t19 29t12.5 41t7 44.5t4 55t1.5 58v66 v190h-121zM506 498q0 -37 0.5 -54t2.5 -42t6.5 -35t12.5 -23.5t21.5 -18.5t31.5 -8.5t44 -3.5q170 0 263 103t93 272q0 70 -26.5 142.5t-73.5 127.5q-55 64 -124.5 87.5t-170.5 23.5q-30 0 -80 -4v-211h201v-295h-201v-61z" />
<glyph unicode="&#xd1;" horiz-adv-x="1515" d="M31 0v41q19 3 34 10.5t26 22.5t18.5 28.5t12.5 39.5t7.5 43.5t4 53t1.5 56.5v64v5.5v4.5v1030h51l850 -750v348q0 173 -11 223q-17 77 -78 103q-2 1 -5 2v41q192 -4 264 -4q89 0 281 4v-41q-18 -3 -33 -10.5t-25 -22.5t-17.5 -29.5t-12.5 -40.5t-7.5 -45.5t-3.5 -55 t-1.5 -58.5t-0.5 -66v-1028h-55l-846 740v-340q0 -15 -1 -47.5t-1 -45.5q0 -101 19.5 -158.5t79.5 -76.5v-41q-180 4 -269 4q-98 0 -282 -4zM387 1507q30 149 71 212t117 63q47 0 172 -51.5t146 -51.5t37 8t26 25t13.5 25.5t9.5 27.5h111q-22 -149 -63.5 -211.5 t-115.5 -62.5q-43 0 -160.5 54t-140.5 54q-50 0 -76 -22t-34 -70h-113z" />
<glyph unicode="&#xd2;" horiz-adv-x="1662" d="M74 684q0 213 108 386t295 261q146 70 357 70q208 0 354 -70q187 -88 296 -261t109 -386t-109.5 -386.5t-295.5 -262.5q-149 -70 -354 -70q-208 0 -357 70q-186 88 -294.5 261.5t-108.5 387.5zM463 684q0 -180 108 -298t263 -118q156 0 263 118t107 298q0 179 -107 296.5 t-263 117.5q-155 0 -263 -117t-108 -297zM469 1759h344l166 -266h-244z" />
<glyph unicode="&#xd3;" horiz-adv-x="1662" d="M74 684q0 213 108 386t295 261q146 70 357 70q208 0 354 -70q187 -88 296 -261t109 -386t-109.5 -386.5t-295.5 -262.5q-149 -70 -354 -70q-208 0 -357 70q-186 88 -294.5 261.5t-108.5 387.5zM463 684q0 -180 108 -298t263 -118q156 0 263 118t107 298q0 179 -107 296.5 t-263 117.5q-155 0 -263 -117t-108 -297zM688 1493l168 266h340l-262 -266h-246z" />
<glyph unicode="&#xd4;" horiz-adv-x="1662" d="M74 684q0 213 108 386t295 261q146 70 357 70q208 0 354 -70q187 -88 296 -261t109 -386t-109.5 -386.5t-295.5 -262.5q-149 -70 -354 -70q-208 0 -357 70q-186 88 -294.5 261.5t-108.5 387.5zM463 684q0 -180 108 -298t263 -118q156 0 263 118t107 298q0 179 -107 296.5 t-263 117.5q-155 0 -263 -117t-108 -297zM494 1493l163 276h355l159 -276h-239l-98 147l-99 -147h-241z" />
<glyph unicode="&#xd5;" horiz-adv-x="1662" d="M74 684q0 213 108 386t295 261q146 70 357 70q208 0 354 -70q187 -88 296 -261t109 -386t-109.5 -386.5t-295.5 -262.5q-149 -70 -354 -70q-208 0 -357 70q-186 88 -294.5 261.5t-108.5 387.5zM463 684q0 -180 108 -298t263 -118q156 0 263 118t107 298q0 179 -107 296.5 t-263 117.5q-155 0 -263 -117t-108 -297zM483 1507q30 150 70.5 212.5t116.5 62.5q47 0 171.5 -51.5t145.5 -51.5q22 0 37.5 8t25 24t13.5 26t10 28h111q-22 -149 -63 -211.5t-115 -62.5q-43 0 -160.5 54t-140.5 54q-52 0 -77.5 -22t-33.5 -70h-111z" />
<glyph unicode="&#xd6;" horiz-adv-x="1662" d="M74 684q0 213 108 386t295 261q146 70 357 70q208 0 354 -70q187 -88 296 -261t109 -386t-109.5 -386.5t-295.5 -262.5q-149 -70 -354 -70q-208 0 -357 70q-186 88 -294.5 261.5t-108.5 387.5zM403 1634q0 71 52 121.5t123 50.5t121.5 -50t50.5 -122t-50.5 -123 t-121.5 -51q-72 0 -123.5 51t-51.5 123zM463 684q0 -180 108 -298t263 -118q156 0 263 118t107 298q0 179 -107 296.5t-263 117.5q-155 0 -263 -117t-108 -297zM918 1634q0 71 50.5 122.5t121.5 51.5q72 0 123 -51t51 -123q0 -70 -51.5 -121t-122.5 -51q-72 0 -122 50 t-50 122z" />
<glyph unicode="&#xd7;" d="M160 406l280 282l-280 281l188 186l281 -281l280 281l189 -186l-281 -283l281 -280l-189 -189l-280 281l-281 -281z" />
<glyph unicode="&#xd8;" horiz-adv-x="1662" d="M74 684q0 144 51.5 273.5t145 227.5t234 156t308.5 58q186 0 309 -41l131 205h277l-205 -316q135 -116 199.5 -255.5t64.5 -317.5q0 -111 -32 -215.5t-96 -194t-152 -157t-207.5 -106t-255.5 -38.5q-50 0 -82.5 1.5t-97 13t-131.5 34.5l-119 -194h-279l199 305 q-128 117 -195 251t-67 310zM451 672q0 -131 84 -248l409 661q-51 19 -119 19q-64 0 -128 -27t-120 -77.5t-91 -136t-35 -191.5zM715 287q41 -21 127 -21q65 0 130.5 28.5t119 79t87 128.5t33.5 170q0 153 -84 280z" />
<glyph unicode="&#xd9;" horiz-adv-x="1515" d="M39 1325v41q270 -4 338 -4q74 0 250 4v-41q-19 -3 -33.5 -10t-25 -21.5t-18 -28t-12 -39.5t-7 -44t-4 -54.5t-1.5 -58v-67.5v-5v-321v-55.5v-53.5t0.5 -45t2.5 -45t5.5 -36t9 -36.5t13.5 -29.5q27 -48 81 -77.5t122 -29.5q66 0 120 29.5t81 77.5q9 16 15 37t9 38 t4.5 50.5t2 50t0 62t-0.5 63.5v321q0 176 -12 230q-19 85 -85 97q-1 1 -3 1v41q176 -4 250 -4q52 0 338 4v-41q-25 -4 -43.5 -16t-30.5 -36t-18.5 -48t-9.5 -66t-4 -74t-1 -88v-352v-53.5v-54.5t-1 -47.5t-3 -49.5t-5.5 -43t-8.5 -46.5t-12.5 -41t-17.5 -45t-23 -40.5 t-29 -44q-75 -97 -211.5 -156t-300.5 -59q-165 0 -302 59t-212 156q-37 48 -58.5 95.5t-30.5 109t-10.5 101.5t-1.5 123v36v352q0 57 -0.5 87.5t-3.5 73.5t-10 66.5t-18.5 48t-30 36.5t-43.5 16zM395 1759h344l166 -266h-243z" />
<glyph unicode="&#xda;" horiz-adv-x="1515" d="M39 1325v41q270 -4 338 -4q74 0 250 4v-41q-19 -3 -33.5 -10t-25 -21.5t-18 -28t-12 -39.5t-7 -44t-4 -54.5t-1.5 -58v-67.5v-5v-321v-55.5v-53.5t0.5 -45t2.5 -45t5.5 -36t9 -36.5t13.5 -29.5q27 -48 81 -77.5t122 -29.5q66 0 120 29.5t81 77.5q9 16 15 37t9 38 t4.5 50.5t2 50t0 62t-0.5 63.5v321q0 176 -12 230q-19 85 -85 97q-1 1 -3 1v41q176 -4 250 -4q52 0 338 4v-41q-25 -4 -43.5 -16t-30.5 -36t-18.5 -48t-9.5 -66t-4 -74t-1 -88v-352v-53.5v-54.5t-1 -47.5t-3 -49.5t-5.5 -43t-8.5 -46.5t-12.5 -41t-17.5 -45t-23 -40.5 t-29 -44q-75 -97 -211.5 -156t-300.5 -59q-165 0 -302 59t-212 156q-37 48 -58.5 95.5t-30.5 109t-10.5 101.5t-1.5 123v36v352q0 57 -0.5 87.5t-3.5 73.5t-10 66.5t-18.5 48t-30 36.5t-43.5 16zM614 1493l168 266h340l-262 -266h-246z" />
<glyph unicode="&#xdb;" horiz-adv-x="1515" d="M39 1325v41q270 -4 338 -4q74 0 250 4v-41q-19 -3 -33.5 -10t-25 -21.5t-18 -28t-12 -39.5t-7 -44t-4 -54.5t-1.5 -58v-67.5v-5v-321v-55.5v-53.5t0.5 -45t2.5 -45t5.5 -36t9 -36.5t13.5 -29.5q27 -48 81 -77.5t122 -29.5q66 0 120 29.5t81 77.5q9 16 15 37t9 38 t4.5 50.5t2 50t0 62t-0.5 63.5v321q0 176 -12 230q-19 85 -85 97q-1 1 -3 1v41q176 -4 250 -4q52 0 338 4v-41q-25 -4 -43.5 -16t-30.5 -36t-18.5 -48t-9.5 -66t-4 -74t-1 -88v-352v-53.5v-54.5t-1 -47.5t-3 -49.5t-5.5 -43t-8.5 -46.5t-12.5 -41t-17.5 -45t-23 -40.5 t-29 -44q-75 -97 -211.5 -156t-300.5 -59q-165 0 -302 59t-212 156q-37 48 -58.5 95.5t-30.5 109t-10.5 101.5t-1.5 123v36v352q0 57 -0.5 87.5t-3.5 73.5t-10 66.5t-18.5 48t-30 36.5t-43.5 16zM420 1493l164 276h352l162 -276h-240l-98 147l-98 -147h-242z" />
<glyph unicode="&#xdc;" horiz-adv-x="1515" d="M39 1325v41q270 -4 338 -4q74 0 250 4v-41q-19 -3 -33.5 -10t-25 -21.5t-18 -28t-12 -39.5t-7 -44t-4 -54.5t-1.5 -58v-67.5v-5v-321v-55.5v-53.5t0.5 -45t2.5 -45t5.5 -36t9 -36.5t13.5 -29.5q27 -48 81 -77.5t122 -29.5q66 0 120 29.5t81 77.5q9 16 15 37t9 38 t4.5 50.5t2 50t0 62t-0.5 63.5v321q0 176 -12 230q-19 85 -85 97q-1 1 -3 1v41q176 -4 250 -4q52 0 338 4v-41q-25 -4 -43.5 -16t-30.5 -36t-18.5 -48t-9.5 -66t-4 -74t-1 -88v-352v-53.5v-54.5t-1 -47.5t-3 -49.5t-5.5 -43t-8.5 -46.5t-12.5 -41t-17.5 -45t-23 -40.5 t-29 -44q-75 -97 -211.5 -156t-300.5 -59q-165 0 -302 59t-212 156q-37 48 -58.5 95.5t-30.5 109t-10.5 101.5t-1.5 123v36v352q0 57 -0.5 87.5t-3.5 73.5t-10 66.5t-18.5 48t-30 36.5t-43.5 16zM330 1634q0 71 51 121.5t123 50.5q71 0 121.5 -49.5t50.5 -122.5 q0 -72 -50.5 -123t-121.5 -51q-72 0 -123 51.5t-51 122.5zM844 1634q0 71 50.5 122.5t121.5 51.5q72 0 123 -51t51 -123q0 -70 -51.5 -121t-122.5 -51q-72 0 -122 50.5t-50 121.5z" />
<glyph unicode="&#xdd;" d="M-14 1325v41q144 -4 219 -4q105 0 301 4v-41q-22 0 -29.5 -9t-7.5 -34q0 -14 14 -49l156 -336l164 367q6 15 6 28q0 29 -45 33v41q192 -4 274 -4q80 0 236 4v-41q-52 -40 -81.5 -81.5t-64.5 -110.5l-299 -580v-184v-26v-68.5t2 -59t6 -55t11 -43.5t18 -38t27.5 -23.5 t38.5 -14.5v-41q-204 4 -297 4q-91 0 -291 -4v41q30 5 50 24.5t31 44t16.5 71t6.5 84t1 104.5v184l-328 598q-24 45 -38 68t-39.5 52.5t-57.5 53.5zM483 1493l168 266h342l-264 -266h-246z" />
<glyph unicode="&#xde;" d="M39 0v41q19 3 34 10.5t26 22.5t18.5 28.5t12.5 39.5t7.5 43.5t4 53t1.5 56.5v64v5.5v4.5v649q0 45 -0.5 67.5t-2 59.5t-5.5 56t-11.5 45t-18.5 39t-27.5 24.5t-38.5 15.5v41q218 -4 301 -4q91 0 291 4v-41q-94 -18 -103 -164q295 -3 383 -31q142 -44 221.5 -155 t79.5 -264q0 -214 -120 -337.5t-338 -123.5q-26 0 -103 14l-80 285l41 14q20 -10 47 -10q170 0 170 172q0 71 -56.5 117.5t-151.5 46.5q-47 0 -97 -6v-514q0 -164 18.5 -236.5t88.5 -91.5v-41q-156 4 -246 4q-225 0 -346 -4z" />
<glyph unicode="&#xdf;" d="M16 600v266h127v35q0 500 473 500q208 0 316 -86q60 -47 94.5 -118.5t34.5 -147.5q0 -110 -38.5 -185.5t-131.5 -109.5q158 -35 225.5 -122.5t67.5 -252.5q0 -187 -110 -299.5t-296 -112.5q-64 0 -143 29l-76 250l43 12q16 -6 51 -6q63 0 107 35q35 28 45 60.5t10 86.5 q0 87 -60.5 130t-150.5 40v264q2 0 7 -1t7 -1q56 0 87.5 30t31.5 85q0 73 -30 104t-101 31q-35 0 -57.5 -18t-31.5 -52t-11 -59t-2 -63v-924q-148 4 -223 4q-80 0 -240 -4v41q19 4 34 13.5t25.5 24t18 28.5t12 36.5l7.5 37.5t4 41t1.5 38t0 38t-0.5 32v270h-127z" />
<glyph unicode="&#xe0;" horiz-adv-x="1220" d="M74 285q0 142 100 216.5t303 100.5q179 22 213 33q44 22 47 53q0 44 -39 61t-125 17q-103 0 -190 -25.5t-180 -72.5h-45l32 305h39q18 -10 41 -10q9 0 59 10.5t128 20.5t155 10q252 0 362.5 -97.5t110.5 -324.5v-254q0 -139 19.5 -206t87.5 -81v-41q-90 2 -274 2 q-130 0 -193 -2v424q-3 0 -33 -6t-89 -20.5t-118 -32.5q-15 -5 -29 -23.5t-14 -36.5q0 -102 111 -102q43 0 63 18l43 -12l-57 -211q-101 -33 -164 -33q-91 0 -162.5 26.5t-114.5 72t-65 102t-22 119.5zM266 1362h332l156 -266h-234z" />
<glyph unicode="&#xe1;" horiz-adv-x="1220" d="M74 285q0 142 100 216.5t303 100.5q179 22 213 33q44 22 47 53q0 44 -39 61t-125 17q-103 0 -190 -25.5t-180 -72.5h-45l32 305h39q18 -10 41 -10q9 0 59 10.5t128 20.5t155 10q252 0 362.5 -97.5t110.5 -324.5v-254q0 -139 19.5 -206t87.5 -81v-41q-90 2 -274 2 q-130 0 -193 -2v424q-3 0 -33 -6t-89 -20.5t-118 -32.5q-15 -5 -29 -23.5t-14 -36.5q0 -102 111 -102q43 0 63 18l43 -12l-57 -211q-101 -33 -164 -33q-91 0 -162.5 26.5t-114.5 72t-65 102t-22 119.5zM467 1096l160 266h329l-251 -266h-238z" />
<glyph unicode="&#xe2;" horiz-adv-x="1220" d="M74 285q0 142 100 216.5t303 100.5q179 22 213 33q44 22 47 53q0 44 -39 61t-125 17q-103 0 -190 -25.5t-180 -72.5h-45l32 305h39q18 -10 41 -10q9 0 59 10.5t128 20.5t155 10q252 0 362.5 -97.5t110.5 -324.5v-254q0 -139 19.5 -206t87.5 -81v-41q-90 2 -274 2 q-130 0 -193 -2v424q-3 0 -33 -6t-89 -20.5t-118 -32.5q-15 -5 -29 -23.5t-14 -36.5q0 -102 111 -102q43 0 63 18l43 -12l-57 -211q-101 -33 -164 -33q-91 0 -162.5 26.5t-114.5 72t-65 102t-22 119.5zM279 1096l167 266h332l166 -266h-237l-95 149l-94 -149h-239z" />
<glyph unicode="&#xe3;" horiz-adv-x="1220" d="M74 285q0 142 100 216.5t303 100.5q179 22 213 33q44 22 47 53q0 44 -39 61t-125 17q-103 0 -190 -25.5t-180 -72.5h-45l32 305h39q18 -10 41 -10q9 0 59 10.5t128 20.5t155 10q252 0 362.5 -97.5t110.5 -324.5v-254q0 -139 19.5 -206t87.5 -81v-41q-90 2 -274 2 q-130 0 -193 -2v424q-3 0 -33 -6t-89 -20.5t-118 -32.5q-15 -5 -29 -23.5t-14 -36.5q0 -102 111 -102q43 0 63 18l43 -12l-57 -211q-101 -33 -164 -33q-91 0 -162.5 26.5t-114.5 72t-65 102t-22 119.5zM270 1108q30 144 69.5 203t113.5 59q45 0 166 -48t141 -48q21 0 36 7.5 t25 24t13.5 25t9.5 27.5h106q-20 -145 -59.5 -205.5t-112.5 -60.5q-42 0 -155.5 53t-135.5 53q-50 0 -75 -21.5t-33 -68.5h-109z" />
<glyph unicode="&#xe4;" horiz-adv-x="1220" d="M74 285q0 142 100 216.5t303 100.5q179 22 213 33q44 22 47 53q0 44 -39 61t-125 17q-103 0 -190 -25.5t-180 -72.5h-45l32 305h39q18 -10 41 -10q9 0 59 10.5t128 20.5t155 10q252 0 362.5 -97.5t110.5 -324.5v-254q0 -139 19.5 -206t87.5 -81v-41q-90 2 -274 2 q-130 0 -193 -2v424q-3 0 -33 -6t-89 -20.5t-118 -32.5q-15 -5 -29 -23.5t-14 -36.5q0 -102 111 -102q43 0 63 18l43 -12l-57 -211q-101 -33 -164 -33q-91 0 -162.5 26.5t-114.5 72t-65 102t-22 119.5zM233 1231q0 69 50 118.5t118 49.5q69 0 117.5 -49.5t48.5 -118.5 t-48.5 -117.5t-117.5 -48.5t-118.5 48.5t-49.5 117.5zM653 1231q0 70 49 119t117 49q69 0 118.5 -49.5t49.5 -118.5t-49 -117.5t-119 -48.5q-69 0 -117.5 48.5t-48.5 117.5z" />
<glyph unicode="&#xe5;" horiz-adv-x="1220" d="M74 285q0 142 100 216.5t303 100.5q179 22 213 33q44 22 47 53q0 44 -39 61t-125 17q-103 0 -190 -25.5t-180 -72.5h-45l32 305h39q18 -10 41 -10q9 0 59 10.5t128 20.5t155 10q252 0 362.5 -97.5t110.5 -324.5v-254q0 -139 19.5 -206t87.5 -81v-41q-90 2 -274 2 q-130 0 -193 -2v424q-3 0 -33 -6t-89 -20.5t-118 -32.5q-15 -5 -29 -23.5t-14 -36.5q0 -102 111 -102q43 0 63 18l43 -12l-57 -211q-101 -33 -164 -33q-91 0 -162.5 26.5t-114.5 72t-65 102t-22 119.5zM406 1296q0 86 55 142.5t149 56.5t149.5 -56.5t55.5 -142.5 q0 -88 -56.5 -144t-148.5 -56t-148 57t-56 143zM526 1296q0 -41 25 -63.5t59 -22.5t59 22.5t25 63.5q0 36 -23.5 61t-60.5 25q-39 0 -61.5 -24t-22.5 -62z" />
<glyph unicode="&#xe6;" horiz-adv-x="1814" d="M74 270q0 229 229 293q127 37 229 45q91 6 175 37q20 7 20 39q0 46 -36 63t-107 17q-76 0 -190 -30t-179 -83l-47 6l31 308h47q21 -9 39 -9q27 0 142.5 22.5t201.5 22.5q117 0 198 -26t144 -84q59 56 130 84.5t181 28.5q227 0 354 -134t127 -348q0 -44 -10 -112h-655 q19 -96 80.5 -140.5t169.5 -44.5q90 0 159 28t138 79l47 -4l-43 -303q-162 -60 -371 -60q-196 0 -331 83t-185 231q-24 75 -31 153q-41 -14 -86.5 -26.5t-73.5 -18.5t-55 -14.5t-41.5 -18t-23.5 -25.5t-9 -40q0 -33 29 -59.5t82 -26.5q49 0 74 14l43 -14l-58 -211 q-91 -27 -170 -27q-175 0 -268 80q-44 38 -72 102.5t-28 122.5zM1096 614h311q-3 75 -42 113.5t-97 38.5q-75 0 -119 -38.5t-53 -113.5z" />
<glyph unicode="&#xe7;" horiz-adv-x="999" d="M61 483q0 105 33 199t94.5 166t156 114t210.5 42q77 0 170 -20.5t106 -20.5q21 0 33 6h45v-324h-45q-23 22 -41.5 35t-59 26t-91.5 13q-115 0 -178.5 -68.5t-63.5 -173.5q0 -100 67 -162.5t179 -62.5q74 0 122.5 20.5t90.5 63.5l45 -4l-39 -326q-23 -7 -45.5 -13 t-46.5 -9.5t-39.5 -6t-41.5 -4.5t-36 -2.5t-39 -2t-35 -1.5l-10 -110q32 12 62 12q56 0 87 -35t31 -94q0 -84 -60 -129t-138 -45q-48 0 -113 26l-12 113l16 -2q23 -20 44 -27.5t56 -7.5q36 0 59 19t23 53q0 20 -16 35.5t-45 15.5q-30 0 -55 -41l-70 6l14 217 q-207 30 -315.5 169.5t-108.5 340.5z" />
<glyph unicode="&#xe8;" horiz-adv-x="1183" d="M55 467q0 248 145.5 392.5t417.5 144.5q250 0 382.5 -137t132.5 -382q0 -11 -3.5 -39.5t-3.5 -33.5h-714q23 -93 90 -140t170 -47q191 0 311 117l43 -4l-41 -305q-43 -19 -75.5 -30.5t-104 -24.5t-152.5 -13q-293 0 -445.5 131.5t-152.5 370.5zM248 1362h332l155 -266 h-233zM420 616h348q-15 73 -53.5 111.5t-120.5 38.5q-139 0 -174 -150z" />
<glyph unicode="&#xe9;" horiz-adv-x="1183" d="M55 467q0 248 145.5 392.5t417.5 144.5q250 0 382.5 -137t132.5 -382q0 -11 -3.5 -39.5t-3.5 -33.5h-714q23 -93 90 -140t170 -47q191 0 311 117l43 -4l-41 -305q-43 -19 -75.5 -30.5t-104 -24.5t-152.5 -13q-293 0 -445.5 131.5t-152.5 370.5zM420 616h348 q-15 73 -53.5 111.5t-120.5 38.5q-139 0 -174 -150zM449 1096l159 266h330l-252 -266h-237z" />
<glyph unicode="&#xea;" horiz-adv-x="1183" d="M55 467q0 248 145.5 392.5t417.5 144.5q250 0 382.5 -137t132.5 -382q0 -11 -3.5 -39.5t-3.5 -33.5h-714q23 -93 90 -140t170 -47q191 0 311 117l43 -4l-41 -305q-43 -19 -75.5 -30.5t-104 -24.5t-152.5 -13q-293 0 -445.5 131.5t-152.5 370.5zM281 1096l168 266h331 l166 -266h-237l-95 149l-94 -149h-239zM420 616h348q-15 73 -53.5 111.5t-120.5 38.5q-139 0 -174 -150z" />
<glyph unicode="&#xeb;" horiz-adv-x="1183" d="M55 467q0 248 145.5 392.5t417.5 144.5q250 0 382.5 -137t132.5 -382q0 -11 -3.5 -39.5t-3.5 -33.5h-714q23 -93 90 -140t170 -47q191 0 311 117l43 -4l-41 -305q-43 -19 -75.5 -30.5t-104 -24.5t-152.5 -13q-293 0 -445.5 131.5t-152.5 370.5zM236 1231q0 69 49 118.5 t118 49.5q68 0 117 -49t49 -119q0 -69 -48.5 -117.5t-117.5 -48.5t-118 48.5t-49 117.5zM420 616h348q-15 73 -53.5 111.5t-120.5 38.5q-139 0 -174 -150zM655 1231q0 70 50 119t118 49q69 0 117.5 -49.5t48.5 -118.5t-48.5 -117.5t-117.5 -48.5t-118.5 48.5t-49.5 117.5z " />
<glyph unicode="&#xec;" horiz-adv-x="628" d="M8 1362h334l156 -266h-234zM29 0v41q29 7 48.5 26t30 41t16 62t6.5 72t1 88v311q0 56 -1 88t-6.5 71.5t-16 61.5t-30 40.5t-48.5 25.5v41h463v-639q0 -47 1 -76.5t4.5 -64t10.5 -56t18 -42t29 -32.5t43 -18v-41q-180 4 -287 4q-94 0 -282 -4z" />
<glyph unicode="&#xed;" horiz-adv-x="628" d="M29 0v41q29 7 48.5 26t30 41t16 62t6.5 72t1 88v311q0 56 -1 88.5t-6.5 71.5t-16 61t-30 40.5t-48.5 25.5v41h463v-639q0 -46 1 -76.5t4.5 -64.5t10.5 -56t18.5 -42t29.5 -32t42 -18v-41q-180 4 -287 4q-94 0 -282 -4zM109 1096l159 266h328l-252 -266h-235z" />
<glyph unicode="&#xee;" horiz-adv-x="628" d="M-25 1096l168 266h332l166 -266h-238l-94 149l-94 -149h-240zM29 0v41q29 7 48.5 25.5t30 41t16 62t6.5 72t1 88.5v311q0 57 -1 89.5t-6.5 71.5t-16 60.5t-30 40t-48.5 25.5v41h463v-639q0 -47 1 -76.5t4.5 -64t10.5 -56t18 -42t29 -32.5t43 -18v-41q-180 4 -285 4 q-96 0 -284 -4z" />
<glyph unicode="&#xef;" horiz-adv-x="628" d="M-68 1231q0 69 49.5 118.5t118.5 49.5q68 0 117 -49t49 -119q0 -69 -48.5 -117.5t-117.5 -48.5t-118.5 48.5t-49.5 117.5zM29 0v41q29 7 48.5 26t30 41t16 62t6.5 72t1 88v311q0 41 -0.5 64t-2.5 55.5t-6 51t-11 41t-18 35.5t-27 24t-37 16v41h463v-639q0 -47 1 -76.5 t4.5 -64t10.5 -56t18 -42t29 -32.5t43 -18v-41q-180 4 -285 4q-96 0 -284 -4zM352 1231q0 70 50 119t118 49q69 0 117.5 -49.5t48.5 -118.5t-48.5 -117.5t-117.5 -48.5t-118.5 48.5t-49.5 117.5z" />
<glyph unicode="&#xf0;" d="M55 485q0 142 69.5 257t178.5 176t232 61q77 0 161 -25q-63 110 -112 168l-105 -82l-49 64l105 82q-28 43 -84 114l145 113q83 -50 125 -82l108 90l50 -63l-97 -78q213 -192 316.5 -388.5t103.5 -408.5q0 -109 -38 -202.5t-109.5 -163.5t-181 -110t-244.5 -40 q-265 0 -419.5 145.5t-154.5 372.5zM424 485q0 -107 54 -170t151 -63t151 63t54 170q0 108 -54.5 171t-150.5 63q-97 0 -151 -63.5t-54 -170.5z" />
<glyph unicode="&#xf1;" horiz-adv-x="1294" d="M31 0v41q29 7 48.5 25.5t30 41t16 62.5t6.5 72.5t1 87.5v311q0 56 -1 88t-6.5 71.5t-16 62t-30 40.5t-48.5 25v41h436q22 -82 31 -140q103 175 315 175q134 0 223 -58q24 -16 42 -33.5t31 -40t22.5 -41.5t15 -49.5t8.5 -51t4 -59.5t1 -62t-0.5 -70.5t-0.5 -73.5v-135 q0 -140 20 -207.5t87 -81.5v-41q-188 4 -283 4q-99 0 -287 -4v41q29 7 48.5 25.5t30 41t16 62t7 72.5t1.5 88v131q0 35 -1.5 60.5t-5.5 55t-12 50t-21 38t-33.5 26.5t-47.5 9q-105 0 -144.5 -73t-39.5 -211v-86q0 -141 19 -208t87 -81v-41q-196 4 -278 4q-103 0 -291 -4z M307 1108q30 144 69 203t113 59q45 0 167.5 -48t142.5 -48q12 0 22 2.5t17.5 9t12.5 11t10.5 15.5l7.5 15t7 17t5 14h108q-20 -145 -60.5 -205.5t-113.5 -60.5q-42 0 -155.5 53t-135.5 53q-50 0 -75 -22t-33 -68h-109z" />
<glyph unicode="&#xf2;" d="M55 485q0 110 39 204.5t111 164.5t181 110t243 40t243.5 -40t181 -110.5t110 -164.5t38.5 -204t-38.5 -204t-110 -164t-181 -110t-243.5 -40q-265 0 -419.5 145.5t-154.5 372.5zM285 1362h331l156 -266h-231zM424 485q0 -107 54 -170t151 -63t151 63t54 170 q0 109 -55 171.5t-150 62.5q-97 0 -151 -63.5t-54 -170.5z" />
<glyph unicode="&#xf3;" d="M55 485q0 110 39 204.5t111 164.5t181 110t243 40t243.5 -40t181 -110.5t110 -164.5t38.5 -204t-38.5 -204t-110 -164t-181 -110t-243.5 -40q-265 0 -419.5 145.5t-154.5 372.5zM424 485q0 -107 54 -170t151 -63t151 63t54 170q0 109 -55 171.5t-150 62.5 q-97 0 -151 -63.5t-54 -170.5zM485 1096l160 266h330l-252 -266h-238z" />
<glyph unicode="&#xf4;" d="M55 485q0 110 39 204.5t111 164.5t181 110t243 40t243.5 -40t181 -110.5t110 -164.5t38.5 -204t-38.5 -204t-110 -164t-181 -110t-243.5 -40q-265 0 -419.5 145.5t-154.5 372.5zM297 1096l168 266h332l166 -266h-238l-94 149l-94 -149h-240zM424 485q0 -107 54 -170 t151 -63t151 63t54 170q0 109 -55 171.5t-150 62.5q-97 0 -151 -63.5t-54 -170.5z" />
<glyph unicode="&#xf5;" d="M55 485q0 110 39 204.5t111 164.5t181 110t243 40t243.5 -40t181 -110.5t110 -164.5t38.5 -204t-38.5 -204t-110 -164t-181 -110t-243.5 -40q-265 0 -419.5 145.5t-154.5 372.5zM279 1108q31 143 69.5 202.5t112.5 59.5q45 0 166 -48t141 -48q21 0 36 7.5t25 25t13 24.5 t10 27h106q-20 -145 -59.5 -205.5t-112.5 -60.5q-42 0 -155 53t-135 53q-94 0 -109 -90h-108zM424 485q0 -107 54 -170t151 -63t151 63t54 170q0 109 -55 171.5t-150 62.5q-97 0 -151 -63.5t-54 -170.5z" />
<glyph unicode="&#xf6;" d="M55 485q0 110 39 204.5t111 164.5t181 110t243 40t243.5 -40t181 -110.5t110 -164.5t38.5 -204t-38.5 -204t-110 -164t-181 -110t-243.5 -40q-265 0 -419.5 145.5t-154.5 372.5zM252 1231q0 69 50 118.5t118 49.5t117 -49t49 -119t-48.5 -118t-117.5 -48t-118.5 48.5 t-49.5 117.5zM424 485q0 -107 54 -170t151 -63t151 63t54 170q0 109 -55 171.5t-150 62.5q-97 0 -151 -63.5t-54 -170.5zM672 1231q0 70 50 119t118 49t117 -49t49 -119q0 -69 -48.5 -117.5t-117.5 -48.5q-70 0 -119 48t-49 118z" />
<glyph unicode="&#xf7;" d="M98 553v266h1061v-266h-1061zM408 203q0 92 65.5 157.5t157.5 65.5t157.5 -65.5t65.5 -157.5q0 -93 -65.5 -159.5t-157.5 -66.5t-157.5 66t-65.5 160zM408 1171q0 92 65.5 158t157.5 66t157.5 -66t65.5 -158t-65.5 -157.5t-157.5 -65.5t-157.5 65.5t-65.5 157.5z" />
<glyph unicode="&#xf8;" d="M55 481q0 235 152.5 379t431.5 144q68 0 190 -25l103 160h227l-153 -246q198 -159 198 -414q0 -155 -90 -291q-147 -225 -506 -225q-64 0 -182 31l-104 -170h-228l158 250q-98 74 -147.5 180t-49.5 227zM418 471q0 -57 26 -111l224 363q-4 0 -20 1t-19 1 q-100 0 -155.5 -65.5t-55.5 -188.5zM590 248h31q106 0 160.5 60t54.5 167q0 78 -23 141z" />
<glyph unicode="&#xf9;" horiz-adv-x="1294" d="M31 928v41h463v-520q0 -91 36 -135t121 -44q83 0 116.5 66t33.5 203v102q0 55 -1.5 88t-7 72.5t-16 62t-30 40.5t-48.5 24v41h463v-639q0 -139 19.5 -207t85.5 -82v-41q-180 4 -254 4q-64 0 -174 -4q-23 82 -33 139q-49 -91 -127 -131.5t-223 -40.5q-56 0 -111 19 q-109 35 -160 116.5t-51 216.5v322q0 56 -1 89t-6.5 72.5t-16 61.5t-30 40t-48.5 24zM303 1362h334l156 -266h-234z" />
<glyph unicode="&#xfa;" horiz-adv-x="1294" d="M31 928v41h463v-520q0 -91 36 -135t121 -44q83 0 116.5 66t33.5 203v102q0 55 -1.5 88t-7 72.5t-16 62t-30 40.5t-48.5 24v41h463v-639q0 -139 19.5 -207t85.5 -82v-41q-180 4 -254 4q-64 0 -174 -4q-23 82 -33 139q-49 -91 -127 -131.5t-223 -40.5q-56 0 -111 19 q-109 35 -160 116.5t-51 216.5v322q0 56 -1 89t-6.5 72.5t-16 61.5t-30 40t-48.5 24zM483 1096l160 266h330l-252 -266h-238z" />
<glyph unicode="&#xfb;" horiz-adv-x="1294" d="M31 928v41h463v-520q0 -91 36 -135t121 -44q83 0 116.5 66t33.5 203v102q0 55 -1.5 88t-7 72.5t-16 62t-30 40.5t-48.5 24v41h463v-639q0 -139 19.5 -207t85.5 -82v-41q-180 4 -254 4q-64 0 -174 -4q-23 82 -33 139q-49 -91 -127 -131.5t-223 -40.5q-56 0 -111 19 q-109 35 -160 116.5t-51 216.5v322q0 56 -1 89t-6.5 72.5t-16 61.5t-30 40t-48.5 24zM295 1096l168 266h332l166 -266h-238l-94 149l-94 -149h-240z" />
<glyph unicode="&#xfc;" horiz-adv-x="1294" d="M31 928v41h463v-520q0 -91 36 -135t121 -44q83 0 116.5 66t33.5 203v102q0 55 -1.5 88t-7 72.5t-16 62t-30 40.5t-48.5 24v41h463v-639q0 -139 19.5 -207t85.5 -82v-41q-180 4 -254 4q-64 0 -174 -4q-23 82 -33 139q-49 -91 -127 -131.5t-223 -40.5q-56 0 -111 19 q-109 35 -160 116.5t-51 216.5v322q0 56 -1 89t-6.5 72.5t-16 61.5t-30 40t-48.5 24zM252 1231q0 69 49 118.5t117 49.5q69 0 118.5 -49.5t49.5 -118.5t-49.5 -117.5t-118.5 -48.5t-117.5 48.5t-48.5 117.5zM670 1231q0 69 49.5 118.5t118.5 49.5q68 0 117 -49.5t49 -118.5 t-48.5 -117.5t-117.5 -48.5t-118.5 48.5t-49.5 117.5z" />
<glyph unicode="&#xfd;" horiz-adv-x="1220" d="M-14 928v41q92 -2 282 -2q197 0 299 2v-41q-30 -2 -46.5 -11.5t-16.5 -35.5q0 -27 14 -58l115 -295l125 285q12 30 12 57q0 22 -17.5 39.5t-52.5 18.5v41q92 -2 279 -2q199 0 297 2v-41q-24 -8 -41.5 -16.5t-42 -31.5t-43.5 -57l-561 -1001q-7 -13 -20.5 -36t-19 -34 t-11 -24.5t-5.5 -22.5q0 -22 1 -32t9 -22t25 -20v-41q-72 2 -217 2q-172 0 -252 -2l342 623l-301 537q-57 102 -82.5 133t-70.5 45zM467 1096l160 266h327l-252 -266h-235z" />
<glyph unicode="&#xfe;" horiz-adv-x="1331" d="M10 -381q29 9 48.5 26.5t30 39t16 59.5t7 71.5t1.5 92.5v1130q0 55 -1.5 87.5t-7 71.5t-16 61.5t-30 41t-48.5 25.5v41h422q10 -19 17.5 -46.5t7.5 -37.5v-395q134 119 309 119q231 0 371.5 -146.5t140.5 -388.5q0 -269 -191 -416q-71 -56 -139 -74t-162 -18 q-62 0 -159 19l-88 260l47 18q42 -12 114 -12q94 0 151.5 58.5t57.5 176.5q0 111 -55.5 174.5t-155.5 63.5q-65 0 -109.5 -22.5t-67 -51.5t-34 -90t-13 -101.5t-1.5 -123.5v-6v-418q0 -59 1.5 -95t7.5 -73t18 -58.5t31.5 -38t48.5 -24.5v-41q-184 4 -279 4q-107 0 -291 -4 v41z" />
<glyph unicode="&#xff;" horiz-adv-x="1220" d="M-14 928v41q92 -2 282 -2q197 0 299 2v-41q-30 -2 -46.5 -11.5t-16.5 -35.5q0 -27 14 -58l115 -295l125 285q12 30 12 57q0 22 -17.5 39.5t-52.5 18.5v41q92 -2 279 -2q199 0 297 2v-41q-24 -8 -41.5 -16.5t-42 -31.5t-43.5 -57l-561 -1001q-7 -13 -20.5 -36t-19 -34 t-11 -24.5t-5.5 -22.5q0 -22 1 -32t9 -22t25 -20v-41q-72 2 -217 2q-172 0 -252 -2l342 623l-301 537q-57 102 -82.5 133t-70.5 45zM240 1231q0 69 48.5 118.5t117.5 49.5q68 0 117.5 -49t49.5 -119q0 -69 -49 -117.5t-118 -48.5t-117.5 48.5t-48.5 117.5zM659 1231 q0 69 49 118.5t117 49.5q69 0 118.5 -49.5t49.5 -118.5t-49.5 -117.5t-118.5 -48.5t-117.5 48.5t-48.5 117.5z" />
<glyph unicode="&#x152;" horiz-adv-x="1888" d="M74 680q0 185 56 318t181 235q195 160 480 160q100 0 262 -13.5t219 -13.5h545v-360h-43q-21 39 -59 52t-138 13h-260v-205h203q93 0 132.5 19.5t53.5 56.5h43q-6 -132 -6 -266q0 -100 6 -195h-43q-6 30 -20.5 49t-39.5 27.5t-48.5 11t-61.5 2.5h-219v-184 q0 -50 22.5 -71t77.5 -21h150q203 0 237 119l45 -4l-34 -410h-652q-64 0 -187 -13.5t-185 -13.5q-192 0 -355.5 88.5t-262.5 252t-99 366.5zM463 686q0 -99 27 -178.5t72.5 -129t103.5 -76t122 -26.5q84 0 148 33v760q-18 6 -34.5 10t-26.5 6.5t-24.5 3.5t-19 1h-19.5h-17 q-138 0 -235 -110.5t-97 -293.5z" />
<glyph unicode="&#x153;" horiz-adv-x="1853" d="M55 475q0 153 62.5 272t189.5 189t301 70q230 0 375 -148q151 148 352 148q109 0 198.5 -39.5t147.5 -107t89.5 -155.5t31.5 -188q0 -36 -10 -104h-618q22 -187 239 -187q77 0 135.5 25.5t126.5 73.5l45 -2l-43 -310q-125 -47 -286 -47q-152 0 -244 36t-164 99 q-170 -133 -387 -133q-130 0 -234 40.5t-170.5 110.5t-101.5 161t-35 196zM424 485q0 -106 54 -169.5t153 -63.5q97 0 152 62t55 171q0 110 -54.5 173t-152.5 63t-152.5 -65.5t-54.5 -170.5zM1169 616h279q-3 72 -40 112t-91 40q-68 0 -102.5 -38t-45.5 -114z" />
<glyph unicode="&#x178;" d="M-14 1325v41q144 -4 219 -4q105 0 301 4v-41q-22 0 -29.5 -9t-7.5 -34q0 -14 14 -49l156 -336l164 367q6 15 6 28q0 29 -45 33v41q192 -4 274 -4q80 0 236 4v-41q-52 -40 -81.5 -81.5t-64.5 -110.5l-299 -580v-184v-26v-68.5t2 -59t6 -55t11 -43.5t18 -38t27.5 -23.5 t38.5 -14.5v-41q-204 4 -297 4q-91 0 -291 -4v41q30 5 50 24.5t31 44t16.5 71t6.5 84t1 104.5v184l-328 598q-24 45 -38 68t-39.5 52.5t-57.5 53.5zM201 1634q0 72 50.5 122t121.5 50t122.5 -50.5t51.5 -121.5q0 -72 -51 -123t-123 -51q-71 0 -121.5 51t-50.5 123zM715 1634 q0 71 50.5 122.5t121.5 51.5q72 0 123 -51.5t51 -122.5t-51 -121.5t-123 -50.5t-122 50.5t-50 121.5z" />
<glyph unicode="&#x2c6;" horiz-adv-x="1024" d="M180 1096l168 266h332l166 -266h-238l-94 149l-94 -149h-240z" />
<glyph unicode="&#x2dc;" horiz-adv-x="1024" d="M172 1108q29 143 68.5 202.5t113.5 59.5q45 0 166.5 -48t141.5 -48q21 0 36 7.5t24.5 24.5t13 24.5t9.5 27.5h107q-20 -144 -60 -205t-112 -61q-42 0 -155.5 53t-135.5 53q-50 0 -75 -21.5t-33 -68.5h-109z" />
<glyph unicode="&#x2000;" horiz-adv-x="953" />
<glyph unicode="&#x2001;" horiz-adv-x="1907" />
<glyph unicode="&#x2002;" horiz-adv-x="953" />
<glyph unicode="&#x2003;" horiz-adv-x="1907" />
<glyph unicode="&#x2004;" horiz-adv-x="635" />
<glyph unicode="&#x2005;" horiz-adv-x="476" />
<glyph unicode="&#x2006;" horiz-adv-x="317" />
<glyph unicode="&#x2007;" horiz-adv-x="317" />
<glyph unicode="&#x2008;" horiz-adv-x="238" />
<glyph unicode="&#x2009;" horiz-adv-x="381" />
<glyph unicode="&#x200a;" horiz-adv-x="105" />
<glyph unicode="&#x2010;" horiz-adv-x="702" d="M82 346v277h539v-277h-539z" />
<glyph unicode="&#x2011;" horiz-adv-x="702" d="M82 346v277h539v-277h-539z" />
<glyph unicode="&#x2012;" horiz-adv-x="702" d="M82 346v277h539v-277h-539z" />
<glyph unicode="&#x2013;" horiz-adv-x="1220" d="M88 346v277h1045v-277h-1045z" />
<glyph unicode="&#x2014;" horiz-adv-x="1775" d="M80 346v277h1614v-277h-1614z" />
<glyph unicode="&#x2018;" horiz-adv-x="628" d="M-43 887l287 479h354l-145 -479h-496z" />
<glyph unicode="&#x2019;" horiz-adv-x="628" d="M31 887l147 479h494l-285 -479h-356z" />
<glyph unicode="&#x201a;" horiz-adv-x="628" d="M31 -297l147 479h494l-285 -479h-356z" />
<glyph unicode="&#x201c;" d="M4 887l287 479h354l-145 -479h-496zM614 887l285 479h356l-147 -479h-494z" />
<glyph unicode="&#x201d;" d="M4 887l146 479h495l-285 -479h-356zM614 887l146 479h495l-286 -479h-355z" />
<glyph unicode="&#x201e;" d="M4 -295l146 479h495l-285 -479h-356zM614 -295l146 479h495l-286 -479h-355z" />
<glyph unicode="&#x2022;" horiz-adv-x="1024" d="M121 692q0 162 114.5 276.5t276.5 114.5t276.5 -114.5t114.5 -276.5t-114.5 -276.5t-276.5 -114.5q-161 0 -276 115t-115 276z" />
<glyph unicode="&#x2026;" horiz-adv-x="2000" d="M109 190q0 93 65.5 159.5t157.5 66.5q94 0 159.5 -66t65.5 -160q0 -93 -66 -158t-159 -65t-158 65t-65 158zM776 190q0 94 65.5 160t157.5 66q93 0 159.5 -66.5t66.5 -159.5q0 -92 -66 -157.5t-160 -65.5q-93 0 -158 65t-65 158zM1442 190q0 94 66 160t159 66t158 -66 t65 -160t-64.5 -158.5t-158.5 -64.5t-159.5 65.5t-65.5 157.5z" />
<glyph unicode="&#x202f;" horiz-adv-x="381" />
<glyph unicode="&#x2039;" horiz-adv-x="632" d="M33 682l254 371h313l-240 -371l240 -369h-309z" />
<glyph unicode="&#x203a;" horiz-adv-x="634" d="M33 313l239 369l-239 371h315l252 -371l-256 -369h-311z" />
<glyph unicode="&#x205f;" horiz-adv-x="476" />
<glyph unicode="&#x20ac;" d="M49 739l37 191h172q51 207 197.5 338t353.5 131q74 0 172 -25q9 -2 45.5 -13t46.5 -11q21 0 41 12h37v-367h-29q-43 71 -97 95t-146 24q-206 0 -265 -184h355l-37 -191h-348v-57q0 -22 2 -45h321l-37 -191h-249q36 -93 104 -143.5t164 -50.5q66 0 109 15.5t70 41.5t69 82 h32l-30 -356q-190 -68 -308 -68q-213 0 -360.5 132.5t-204.5 346.5h-215l37 191h148q-4 82 -3 102h-184z" />
<glyph unicode="&#x2122;" horiz-adv-x="1843" d="M74 1137l24 229h586l25 -229h-35q-13 30 -42.5 38.5t-96.5 8.5h-31v-383q0 -95 11.5 -133.5t51.5 -44.5v-35q-57 2 -178 2q-117 0 -172 -2v35q11 1 19.5 5t14.5 11.5t10.5 14t7 21t4 24t2.5 30t1 33v39.5v383h-30q-66 0 -95 -8.5t-42 -38.5h-35zM709 588v35q9 3 14 6 t13.5 19.5t17.5 47.5l219 715h41l217 -467l225 467h37l231 -735q10 -33 48 -55v-33q-59 2 -177 2q-90 0 -133 -2v33q25 13 25 49q0 7 -8 55l-52 211l-186 -373h-45l-170 373l-70 -244q-12 -36 -12 -53q0 -10 23 -16v-35q-24 0 -73.5 1t-70.5 1q-15 0 -54 -1t-60 -1z" />
<glyph unicode="&#x25fc;" horiz-adv-x="972" d="M0 0v973h973v-973h-973z" />
</font>
</defs>
</svg>
